<svg version="1.1" viewBox="0.0 0.0 352.9685039370079 550.9737532808399" fill="none" stroke="none" stroke-linecap="square" stroke-miterlimit="10" xmlns:xlink="http://www.w3.org/1999/xlink" xmlns="http://www.w3.org/2000/svg"><clipPath id="p.0"><path d="m0 0l352.9685 0l0 550.97375l-352.9685 0l0 -550.97375z" clip-rule="nonzero"/></clipPath><g clip-path="url(#p.0)"><path fill="#000000" fill-opacity="0.0" d="m0 0l352.9685 0l0 550.97375l-352.9685 0z" fill-rule="evenodd"/><path fill="#343953" d="m0.002624672 37.854607l0 0c0 -20.906523 16.948084 -37.854607 37.854607 -37.854607l276.1648 0c10.039673 0 19.668121 3.9882417 26.767242 11.0873575c7.099121 7.0991163 11.087372 16.727585 11.087372 26.76725l0 474.55847c0 20.906555 -16.94809 37.854614 -37.854614 37.854614l-276.1648 0c-20.906523 0 -37.854607 -16.94806 -37.854607 -37.854614z" fill-rule="evenodd"/><path fill="#d9d9d9" d="m0 63.48736l0 0c0 -13.302208 10.783569 -24.085777 24.085777 -24.085777l303.70245 0c6.3879395 0 12.514252 2.5376015 17.03122 7.0545616c4.516968 4.51696 7.0545654 10.643272 7.0545654 17.031216l0 435.63947c0 13.302185 -10.783569 24.085754 -24.085785 24.085754l-303.70245 0c-13.302208 0 -24.085777 -10.783569 -24.085777 -24.085754z" fill-rule="evenodd"/><path fill="#b7b7b7" d="m168.4147 67.84185l0 0c0 -10.000187 8.1067505 -18.106941 18.106934 -18.106941l137.70737 0c4.8022766 0 9.407837 1.9076881 12.803558 5.303398c3.395691 3.3957138 5.303406 8.001282 5.303406 12.803543l0 426.84122c0 10.000183 -8.1067505 18.106964 -18.106964 18.106964l-137.70737 0c-10.000183 0 -18.106934 -8.106781 -18.106934 -18.106964z" fill-rule="evenodd"/><path fill="#b7b7b7" d="m145.44957 55.40651l0 0c0 -3.1592445 2.561081 -5.7203217 5.7203217 -5.7203217l0 0l0 0c1.5171356 0 2.9721222 0.6026764 4.0448914 1.6754417c1.0727692 1.0727692 1.6754303 2.5277557 1.6754303 4.04488l0 388.43158c0 3.1592407 -2.5610657 5.7203064 -5.7203217 5.7203064l0 0l0 0c-3.1592407 0 -5.7203217 -2.5610657 -5.7203217 -5.7203064z" fill-rule="evenodd"/><path fill="#999999" d="m145.44955 310.86575l0 0c0 -3.1592712 2.5610657 -5.720337 5.7203217 -5.720337l0 0l0 0c1.5171204 0 2.972107 0.60266113 4.044876 1.6754456c1.0727692 1.0727539 1.6754456 2.5277405 1.6754456 4.0448914l0 127.212036c0 3.1592407 -2.561081 5.7203064 -5.7203217 5.7203064l0 0l0 0c-3.159256 0 -5.7203217 -2.5610657 -5.7203217 -5.7203064z" fill-rule="evenodd"/><path fill="#cccccc" d="m179.72179 71.57641l0 0c0 -3.0333786 2.4590302 -5.4924164 5.4924164 -5.4924164l140.32227 0c1.456665 0 2.8536682 0.57865906 3.8836975 1.6086884c1.0300293 1.0300293 1.6087036 2.4270477 1.6087036 3.883728l0 41.771072c0 3.0333786 -2.4590454 5.4924164 -5.492401 5.4924164l-140.32227 0c-3.0333862 0 -5.4924164 -2.4590378 -5.4924164 -5.4924164z" fill-rule="evenodd"/><path fill="#93c47d" d="m179.72179 68.93439l0 0c0 -1.574234 1.2761688 -2.8503952 2.8503876 -2.8503952l0 0l0 0c0.75598145 0 1.4809875 0.30030823 2.0155334 0.83486176c0.53456116 0.5345535 0.8348694 1.2595596 0.8348694 2.0155334l0 47.055115c0 1.5742264 -1.2761688 2.8503952 -2.8504028 2.8503952l0 0l0 0c-1.5742188 0 -2.8503876 -1.2761688 -2.8503876 -2.8503952z" fill-rule="evenodd"/><path fill="#b7b7b7" d="m192.07878 79.936l0 0c0 -3.261528 2.643982 -5.9055176 5.9055023 -5.9055176l56.0 0c1.5662537 0 3.0683289 0.6221924 4.1758423 1.7296906c1.1074829 1.1074982 1.7296753 2.6095886 1.7296753 4.175827l0 0l0 0c0 3.2615204 -2.643982 5.90551 -5.9055176 5.90551l-56.0 0c-3.2615204 0 -5.9055023 -2.6439896 -5.9055023 -5.90551z" fill-rule="evenodd"/><path fill="#b7b7b7" d="m192.07874 95.96588l0 0c0 -2.165657 1.7556152 -3.9212646 3.9212646 -3.9212646l86.86615 0c1.039978 0 2.0373535 0.4131317 2.7727356 1.1485138c0.7353821 0.73537445 1.148529 1.7327652 1.148529 2.7727509l0 0l0 0c0 2.1656494 -1.7556152 3.921257 -3.9212646 3.921257l-86.86615 0c-2.1656494 0 -3.9212646 -1.7556076 -3.9212646 -3.921257z" fill-rule="evenodd"/><path fill="#4f577f" d="m299.15955 20.108107l0 0c0 -7.9407244 6.437256 -14.377954 14.37796 -14.377954l0 0c3.813263 0 7.4703674 1.5148158 10.166748 4.2112055c2.6964111 2.6963892 4.211212 6.3534775 4.211212 10.166748l0 0c0 7.9407234 -6.4372253 14.377951 -14.37796 14.377951l0 0c-7.9407043 0 -14.37796 -6.4372272 -14.37796 -14.377951z" fill-rule="evenodd"/><path fill="#4f577f" d="m264.9162 20.108107l0 0c0 -7.9407244 6.4372253 -14.377954 14.37796 -14.377954l0 0c3.813263 0 7.4703674 1.5148158 10.166748 4.2112055c2.6963806 2.6963892 4.211212 6.3534775 4.211212 10.166748l0 0c0 7.9407234 -6.4372253 14.377951 -14.37796 14.377951l0 0c-7.940735 0 -14.37796 -6.4372272 -14.37796 -14.377951z" fill-rule="evenodd"/><path fill="#b7b7b7" d="m192.07874 106.32546l0 0c0 -1.722084 1.3960266 -3.1181107 3.1181183 -3.1181107l50.362198 0c0.8269806 0 1.6200867 0.3285141 2.204834 0.91326904c0.5847626 0.5847626 0.9132843 1.377861 0.9132843 2.2048416l0 0l0 0c0 1.722084 -1.3960266 3.1181107 -3.1181183 3.1181107l-50.362198 0c-1.7220917 0 -3.1181183 -1.3960266 -3.1181183 -3.1181107z" fill-rule="evenodd"/><path fill="#cccccc" d="m179.72179 146.77953l0 0c0 -5.5054474 4.463043 -9.968506 9.968506 -9.968506l131.37007 0c2.6438293 0 5.179352 1.0502472 7.0487976 2.9197083c1.8694458 1.869461 2.9197083 4.4049835 2.9197083 7.0487976l0 0l0 0c0 5.5054474 -4.463043 9.968506 -9.968506 9.968506l-131.37007 0l0 0c-5.5054626 0 -9.968506 -4.4630585 -9.968506 -9.968506z" fill-rule="evenodd"/><path fill="#93c47d" d="m184.7769 146.61807l0 0c0 -3.2615204 2.643982 -5.9055176 5.9055023 -5.9055176l0 0c1.5662384 0 3.0683289 0.6221924 4.175827 1.7296906c1.1074982 1.1074982 1.7296906 2.6095886 1.7296906 4.175827l0 0c0 3.2615204 -2.643982 5.9055176 -5.9055176 5.9055176l0 0c-3.2615204 0 -5.9055023 -2.6439972 -5.9055023 -5.9055176z" fill-rule="evenodd"/><path fill="#b7b7b7" d="m201.61942 146.59529l0 0c0 -3.2615204 2.6439972 -5.9055176 5.9055176 -5.9055176l82.897644 0c1.5662231 0 3.0683289 0.6221924 4.175812 1.7296906c1.1075134 1.1074982 1.7297058 2.6095886 1.7297058 4.175827l0 0l0 0c0 3.2615204 -2.6440125 5.9055176 -5.9055176 5.9055176l-82.897644 0l0 0c-3.2615204 0 -5.9055176 -2.6439972 -5.9055176 -5.9055176z" fill-rule="evenodd"/><path fill="#cccccc" d="m179.72179 174.33333l0 0c0 -5.5054474 4.463043 -9.968506 9.968506 -9.968506l131.37007 0c2.6438293 0 5.179352 1.0502625 7.0487976 2.9197083c1.8694458 1.869461 2.9197083 4.4049835 2.9197083 7.0487976l0 0l0 0c0 5.5054626 -4.463043 9.968506 -9.968506 9.968506l-131.37007 0l0 0c-5.5054626 0 -9.968506 -4.463043 -9.968506 -9.968506z" fill-rule="evenodd"/><path fill="#93c47d" d="m184.7769 174.17188l0 0c0 -3.2615204 2.643982 -5.9055023 5.9055023 -5.9055023l0 0c1.5662384 0 3.0683289 0.6221771 4.175827 1.7296753c1.1074982 1.1074982 1.7296906 2.6095886 1.7296906 4.175827l0 0c0 3.2615204 -2.643982 5.9055176 -5.9055176 5.9055176l0 0c-3.2615204 0 -5.9055023 -2.6439972 -5.9055023 -5.9055176z" fill-rule="evenodd"/><path fill="#b7b7b7" d="m201.61942 174.14961l0 0c0 -3.2615356 2.6439972 -5.9055176 5.9055176 -5.9055176l66.897644 0c1.5662231 0 3.0683289 0.6221924 4.175812 1.7296906c1.1075134 1.1074982 1.7297058 2.6095886 1.7297058 4.175827l0 0l0 0c0 3.2615204 -2.6440125 5.9055023 -5.9055176 5.9055023l-66.897644 0c-3.2615204 0 -5.9055176 -2.643982 -5.9055176 -5.9055023z" fill-rule="evenodd"/><path fill="#cccccc" d="m179.72179 201.88715l0 0c0 -5.5054626 4.463043 -9.968506 9.968506 -9.968506l131.37007 0c2.6438293 0 5.179352 1.0502472 7.0487976 2.9197083c1.8694458 1.8694458 2.9197083 4.4049835 2.9197083 7.0487976l0 0l0 0c0 5.5054474 -4.463043 9.968491 -9.968506 9.968491l-131.37007 0l0 0c-5.5054626 0 -9.968506 -4.463043 -9.968506 -9.968491z" fill-rule="evenodd"/><path fill="#ffd966" d="m184.7769 201.72568l0 0c0 -3.2615204 2.643982 -5.9055023 5.9055023 -5.9055023l0 0c1.5662384 0 3.0683289 0.6221771 4.175827 1.7296753c1.1074982 1.1074982 1.7296906 2.6095886 1.7296906 4.175827l0 0c0 3.2615356 -2.643982 5.9055176 -5.9055176 5.9055176l0 0c-3.2615204 0 -5.9055023 -2.643982 -5.9055023 -5.9055176z" fill-rule="evenodd"/><path fill="#b7b7b7" d="m201.61942 201.70341l0 0c0 -3.2615204 2.6439972 -5.9055176 5.9055176 -5.9055176l92.724396 0c1.5662537 0 3.0683594 0.6221924 4.1758423 1.7296906c1.1075134 1.1074982 1.7296753 2.6095886 1.7296753 4.175827l0 0l0 0c0 3.2615204 -2.643982 5.9055023 -5.9055176 5.9055023l-92.724396 0c-3.2615204 0 -5.9055176 -2.643982 -5.9055176 -5.9055023z" fill-rule="evenodd"/><path fill="#cccccc" d="m179.72179 256.99475l0 0c0 -5.5054474 4.463043 -9.968506 9.968506 -9.968506l131.37007 0c2.6438293 0 5.179352 1.0502472 7.0487976 2.9197083c1.8694458 1.869461 2.9197083 4.4049835 2.9197083 7.0487976l0 0l0 0c0 5.5054626 -4.463043 9.968506 -9.968506 9.968506l-131.37007 0l0 0c-5.5054626 0 -9.968506 -4.463043 -9.968506 -9.968506z" fill-rule="evenodd"/><path fill="#e06666" d="m184.7769 256.83328l0 0c0 -3.2615051 2.643982 -5.9055023 5.9055023 -5.9055023l0 0c1.5662384 0 3.0683289 0.6221924 4.175827 1.7296906c1.1074982 1.1074982 1.7296906 2.6095886 1.7296906 4.175812l0 0c0 3.2615356 -2.643982 5.9055176 -5.9055176 5.9055176l0 0c-3.2615204 0 -5.9055023 -2.643982 -5.9055023 -5.9055176z" fill-rule="evenodd"/><path fill="#b7b7b7" d="m201.61942 256.81104l0 0c0 -3.2615356 2.6439972 -5.9055176 5.9055176 -5.9055176l59.811035 0c1.5662231 0 3.0683289 0.6221771 4.175812 1.7296753c1.1075134 1.1074982 1.7296753 2.6095886 1.7296753 4.1758423l0 0l0 0c0 3.2615051 -2.643982 5.905487 -5.905487 5.905487l-59.811035 0c-3.2615204 0 -5.9055176 -2.643982 -5.9055176 -5.905487z" fill-rule="evenodd"/><path fill="#cccccc" d="m179.72179 229.44095l0 0c0 -5.5054626 4.463043 -9.968506 9.968506 -9.968506l131.37007 0c2.6438293 0 5.179352 1.0502472 7.0487976 2.9197083c1.8694458 1.869461 2.9197083 4.4049835 2.9197083 7.0487976l0 0l0 0c0 5.5054474 -4.463043 9.968506 -9.968506 9.968506l-131.37007 0l0 0c-5.5054626 0 -9.968506 -4.4630585 -9.968506 -9.968506z" fill-rule="evenodd"/><path fill="#e06666" d="m184.7769 229.2795l0 0c0 -3.2615356 2.643982 -5.9055176 5.9055023 -5.9055176l0 0c1.5662384 0 3.0683289 0.6221924 4.175827 1.7296906c1.1074982 1.1074982 1.7296906 2.6095886 1.7296906 4.175827l0 0c0 3.2615204 -2.643982 5.9055023 -5.9055176 5.9055023l0 0c-3.2615204 0 -5.9055023 -2.643982 -5.9055023 -5.9055023z" fill-rule="evenodd"/><path fill="#b7b7b7" d="m201.61942 229.25722l0 0c0 -3.2615204 2.6439972 -5.9055176 5.9055176 -5.9055176l77.22836 0c1.5662231 0 3.0683289 0.6221924 4.175812 1.7296906c1.1075134 1.1074982 1.7296753 2.6095886 1.7296753 4.175827l0 0l0 0c0 3.2615204 -2.643982 5.9055176 -5.905487 5.9055176l-77.22836 0l0 0c-3.2615204 0 -5.9055176 -2.6439972 -5.9055176 -5.9055176z" fill-rule="evenodd"/><path fill="#cccccc" d="m0.0026220472 473.96075l0 0c0 -3.2471008 2.6322892 -5.8793945 5.8793826 -5.8793945l67.67431 0c1.5593033 0 3.0547485 0.6194458 4.1573486 1.7220459c1.1026001 1.1026001 1.7220306 2.5980225 1.7220306 4.1573486l0 23.516815c0 3.2471008 -2.632286 5.8793945 -5.8793793 5.8793945l-67.67431 0c-3.2470934 0 -5.8793826 -2.6322937 -5.8793826 -5.8793945z" fill-rule="evenodd"/><path fill="#b7b7b7" d="m84.2072 473.96075l0 0c0 -3.2471008 2.632286 -5.8793945 5.8793793 -5.8793945l60.93416 0c1.5592957 0 3.0547485 0.6194458 4.1573486 1.7220459c1.1026001 1.1026001 1.7220306 2.5980225 1.7220306 4.1573486l0 23.516815c0 3.2471008 -2.6322937 5.8793945 -5.8793793 5.8793945l-60.93416 0c-3.2470932 0 -5.8793793 -2.6322937 -5.8793793 -5.8793945z" fill-rule="evenodd"/><path fill="#cccccc" d="m0.0026244095 72.70125l0 0c0 -12.68396 10.28238 -22.96634 22.96634 -22.96634l91.862595 0l0 0c6.091057 0 11.932632 2.4196587 16.239655 6.7266846c4.307022 4.307022 6.7266846 10.148598 6.7266846 16.239655l0 355.23267c0 12.68396 -10.282379 22.96634 -22.96634 22.96634l-91.862595 0c-12.683959 0 -22.96634 -10.282379 -22.96634 -22.96634z" fill-rule="evenodd"/><defs><linearGradient id="p.1" gradientUnits="userSpaceOnUse" gradientTransform="matrix(11.250896727165989 0.0 0.0 11.250896727165989 0.0 0.0)" spreadMethod="pad" x1="-0.34456279476702667" y1="48.97107468835442" x2="10.90633393239896" y2="48.97107468835442"><stop offset="0.0" stop-color="#efefef"/><stop offset="0.27" stop-color="#efefef"/><stop offset="0.99999994" stop-color="#efefef" stop-opacity="0.0"/><stop offset="1.0" stop-color="#ffffff" stop-opacity="0.0"/></linearGradient></defs><path fill="url(#p.1)" d="m-3.8766403 0.007874016l126.58268 0l0 550.96063l-126.58268 0z" fill-rule="evenodd"/></g></svg>