<svg version="1.1" viewBox="0.0 0.0 866.9212598425197 643.3569553805775" fill="none" stroke="none" stroke-linecap="square" stroke-miterlimit="10" xmlns:xlink="http://www.w3.org/1999/xlink" xmlns="http://www.w3.org/2000/svg"><clipPath id="p.0"><path d="m0 0l866.92126 0l0 643.35693l-866.92126 0l0 -643.35693z" clip-rule="nonzero"/></clipPath><g clip-path="url(#p.0)"><path fill="#000000" fill-opacity="0.0" d="m0 0l866.92126 0l0 643.35693l-866.92126 0z" fill-rule="evenodd"/><path fill="#666666" d="m346.2362 556.43567l174.45673 0l0 0c11.418884 0 22.370117 4.536194 30.444519 12.610596c8.074402 8.074402 12.610596 19.025635 12.610596 30.444519l0 38.273438c0 2.6408691 -2.1408691 4.7817383 -4.7817383 4.7817383l-251.00351 0c-2.6408691 0 -4.781708 -2.1408691 -4.781708 -4.7817383l0 -38.273438l0 0c0 -23.778625 19.276459 -43.055115 43.055115 -43.055115z" fill-rule="evenodd"/><path fill="#434343" d="m0 45.608063l0 0c0 -25.188637 20.419426 -45.608063 45.608063 -45.608063l775.713 0c12.096008 0 23.696655 4.8051214 32.249817 13.358293c8.553162 8.55317 13.358276 20.153763 13.358276 32.24977l0 484.27994c0 25.18866 -20.419434 45.608032 -45.608093 45.608032l-775.713 0c-25.188637 0 -45.608063 -20.419373 -45.608063 -45.608032z" fill-rule="evenodd"/><path fill="#f3f3f3" d="m14.37655 58.829945l0 0c0 -23.654324 19.175621 -42.829945 42.829945 -42.829945l750.6551 0c11.359192 0 22.253174 4.5124283 30.28534 12.5446c8.032166 8.032175 12.544617 18.926138 12.544617 30.285345l0 454.78107c0 23.654297 -19.17566 42.829895 -42.829956 42.829895l-750.6551 0c-23.654324 0 -42.829945 -19.175598 -42.829945 -42.829895z" fill-rule="evenodd"/><path fill="#666666" d="m13.682415 55.792377l0 0c0 -22.030357 17.859133 -39.88949 39.889492 -39.88949l757.2289 0c10.579346 0 20.725403 4.202631 28.206116 11.683361c7.480774 7.48073 11.683411 17.62678 11.683411 28.20613l0 28.976925c0 22.030357 -17.85913 39.88949 -39.889526 39.88949l-757.2289 0c-22.03036 0 -39.889492 -17.85913 -39.889492 -39.88949z" fill-rule="evenodd"/><path fill="#f3f3f3" d="m14.375328 51.608925l835.6221 0l0 77.92126l-835.6221 0z" fill-rule="evenodd"/><path fill="#b7b7b7" d="m850.72205 51.498688l0 464.20383c0 10.763428 -4.275757 21.08606 -11.886658 28.6969c-7.61084 7.610901 -17.933472 11.886658 -28.6969 11.886658l-159.54242 0l0 -504.78738z" fill-rule="evenodd"/><path fill="#efefef" d="m663.6667 129.20432l0 0c0 -2.785843 2.2583618 -5.0442123 5.0441895 -5.0442123l162.73047 0c1.3378296 0 2.6208496 0.53144073 3.5668335 1.477417c0.94592285 0.9459686 1.477356 2.228981 1.477356 3.5667953l0 11.549377c0 2.785843 -2.2583618 5.0442047 -5.0441895 5.0442047l-162.73047 0c-2.7858276 0 -5.0441895 -2.2583618 -5.0441895 -5.0442047z" fill-rule="evenodd"/><path fill="#efefef" d="m663.6656 77.16273l0 0c0 -7.8102646 6.331482 -14.141731 14.141724 -14.141731l0 0c3.7506104 0 7.347595 1.4899292 9.999695 4.142021c2.6520996 2.6520844 4.142029 6.249092 4.142029 9.99971l0 0c0 7.8102646 -6.331482 14.141731 -14.141724 14.141731l0 0c-7.8102417 0 -14.141724 -6.3314667 -14.141724 -14.141731z" fill-rule="evenodd"/><path fill="#efefef" d="m702.83215 77.16273l0 0c0 -4.827057 3.913086 -8.740158 8.740173 -8.740158l116.188965 0c2.3179932 0 4.5411377 0.9208374 6.180237 2.5599365c1.6390381 1.6390991 2.5598755 3.8621902 2.5598755 6.1802216l0 0l0 0c0 4.827057 -3.913086 8.740158 -8.740112 8.740158l-116.188965 0l0 0c-4.8270874 0 -8.740173 -3.9131012 -8.740173 -8.740158z" fill-rule="evenodd"/><path fill="#999999" d="m650.5958 103.48819l200.12598 0l0 3.0866165l-200.12598 0z" fill-rule="evenodd"/><path fill="#999999" d="m663.6667 125.84885l0 0c0 -0.93266296 0.7560425 -1.6887436 1.6887207 -1.6887436l3.8666382 0l0 0c0.44787598 0 0.8773804 0.17792511 1.1940918 0.49462128c0.31671143 0.3167038 0.4946289 0.7462387 0.4946289 1.1941223l0 18.260315c0 0.93266296 -0.7561035 1.688736 -1.6887207 1.688736l-3.8666382 0c-0.9326782 0 -1.6887207 -0.756073 -1.6887207 -1.688736z" fill-rule="evenodd"/><path fill="#efefef" d="m663.6667 163.33817l0 0c0 -2.785843 2.2583618 -5.0442047 5.0441895 -5.0442047l162.73047 0c1.3378296 0 2.6208496 0.53144836 3.5668335 1.477417c0.94592285 0.9459686 1.477356 2.2289886 1.477356 3.5667877l0 11.549393c0 2.7858276 -2.2583618 5.0442047 -5.0441895 5.0442047l-162.73047 0c-2.7858276 0 -5.0441895 -2.258377 -5.0441895 -5.0442047z" fill-rule="evenodd"/><path fill="#999999" d="m663.6667 159.98271l0 0c0 -0.9326782 0.7560425 -1.6887512 1.6887207 -1.6887512l3.8666382 0l0 0c0.44787598 0 0.8773804 0.17791748 1.1940918 0.4946289c0.31671143 0.31669617 0.4946289 0.7462311 0.4946289 1.1941223l0 18.2603c0 0.9326782 -0.7561035 1.6887512 -1.6887207 1.6887512l-3.8666382 0c-0.9326782 0 -1.6887207 -0.756073 -1.6887207 -1.6887512z" fill-rule="evenodd"/><path fill="#efefef" d="m664.2493 197.47203l0 0c0 -2.785843 2.2583618 -5.0442047 5.0441895 -5.0442047l162.73053 0c1.3377686 0 2.6207886 0.5314331 3.5667725 1.4774017c0.9459839 0.9459839 1.477417 2.2289886 1.477417 3.566803l0 11.549377c0 2.785843 -2.2583618 5.0442047 -5.0441895 5.0442047l-162.73053 0c-2.7858276 0 -5.0441895 -2.2583618 -5.0441895 -5.0442047z" fill-rule="evenodd"/><path fill="#999999" d="m664.2493 194.11656l0 0c0 -0.93266296 0.7561035 -1.688736 1.6887817 -1.688736l3.8665771 0l0 0c0.44787598 0 0.8774414 0.17791748 1.1941528 0.49461365c0.3166504 0.31671143 0.49456787 0.74624634 0.49456787 1.1941223l0 18.260315c0 0.93266296 -0.7560425 1.688736 -1.6887207 1.688736l-3.8665771 0c-0.9326782 0 -1.6887817 -0.756073 -1.6887817 -1.688736z" fill-rule="evenodd"/><path fill="#efefef" d="m663.6667 231.60588l0 0c0 -2.7858276 2.2583618 -5.0442047 5.0441895 -5.0442047l162.73047 0c1.3378296 0 2.6208496 0.53144836 3.5668335 1.477417c0.94592285 0.9459686 1.477356 2.2289886 1.477356 3.5667877l0 11.549393c0 2.7858276 -2.2583618 5.0442047 -5.0441895 5.0442047l-162.73047 0c-2.7858276 0 -5.0441895 -2.258377 -5.0441895 -5.0442047z" fill-rule="evenodd"/><path fill="#999999" d="m663.6667 228.25043l0 0c0 -0.9326782 0.7560425 -1.6887512 1.6887207 -1.6887512l3.8666382 0l0 0c0.44787598 0 0.8773804 0.17791748 1.1940918 0.4946289c0.31671143 0.31669617 0.4946289 0.7462311 0.4946289 1.1941223l0 18.2603c0 0.9326782 -0.7561035 1.6887512 -1.6887207 1.6887512l-3.8666382 0c-0.9326782 0 -1.6887207 -0.756073 -1.6887207 -1.6887512z" fill-rule="evenodd"/><path fill="#cccccc" d="m39.16798 500.47742l0 0c0 -7.610077 6.1691856 -13.779266 13.779266 -13.779266l508.4415 0c3.65448 0 7.1593018 1.4517517 9.743408 4.035858c2.5841064 2.5841064 4.0358276 6.088928 4.0358276 9.743408l0 16.283997c0 7.6101074 -6.1691895 13.779297 -13.779236 13.779297l-508.4415 0c-7.6100807 0 -13.779266 -6.1691895 -13.779266 -13.779297z" fill-rule="evenodd"/><path fill="#999999" d="m555.5906 495.40396l0 0c0 -4.808075 3.897705 -8.705811 8.705811 -8.705811l67.43872 0c2.30896 0 4.5233154 0.9172363 6.155945 2.5498962c1.6326904 1.6326294 2.5498657 3.8470154 2.5498657 6.1559143l0 26.430939c0 4.8080444 -3.897705 8.705811 -8.705811 8.705811l-67.43872 0c-4.8081055 0 -8.705811 -3.897766 -8.705811 -8.705811z" fill-rule="evenodd"/><path fill="#b7b7b7" d="m633.19684 58.433212l0 0c0 -0.7944412 0.64404297 -1.4384613 1.4384766 -1.4384613l4.3671875 0l0 0c0.38146973 0 0.7473755 0.1515503 1.0171509 0.42131424c0.26971436 0.26976395 0.42126465 0.635643 0.42126465 1.0171471l0 419.9262c0 0.7944336 -0.64398193 1.4384766 -1.4384155 1.4384766l-4.3671875 0c-0.7944336 0 -1.4384766 -0.64404297 -1.4384766 -1.4384766z" fill-rule="evenodd"/><path fill="#999999" d="m633.19684 330.4357l0 0c0 -2.0003967 1.6216431 -3.6220398 3.6220703 -3.6220398l0 0l0 0c0.9606323 0 1.881897 0.3815918 2.5611572 1.060852c0.67926025 0.67926025 1.060852 1.6005554 1.060852 2.5611877l0 145.73227c0 2.0003967 -1.6216431 3.6220703 -3.6220093 3.6220703l0 0l0 0c-2.0004272 0 -3.6220703 -1.6216736 -3.6220703 -3.6220703z" fill-rule="evenodd"/><path fill="#b7b7b7" d="m39.16798 317.0l0 0c0 -14.620331 11.852116 -26.472443 26.472439 -26.472443l0 0c7.0209274 0 13.754295 2.7890625 18.718842 7.753601c4.964546 4.9645386 7.753601 11.6979065 7.753601 18.718842l0 0c0 14.620331 -11.852119 26.472443 -26.472443 26.472443l0 0c-14.620323 0 -26.472439 -11.852112 -26.472439 -26.472443z" fill-rule="evenodd"/><path fill="#cccccc" d="m123.30971 300.97562l0 0c0 -3.7558594 3.0447083 -6.8005676 6.8005524 -6.8005676l363.56427 0c1.8036194 0 3.5333557 0.7164917 4.808716 1.9918518c1.2753296 1.2753296 1.9918213 3.0050964 1.9918213 4.808716l0 8.036713c0 3.7558289 -3.0447083 6.800537 -6.800537 6.800537l-363.56427 0c-3.755844 0 -6.8005524 -3.0447083 -6.8005524 -6.800537z" fill-rule="evenodd"/><path fill="#cccccc" d="m123.30971 332.17566l0 0c0 -3.7558289 3.0447083 -6.800537 6.8005524 -6.800537l238.08395 0c1.8036194 0 3.5333557 0.7164917 4.808716 1.9918518c1.2753296 1.2753296 1.9918213 3.005066 1.9918213 4.8086853l0 8.036713c0 3.7558289 -3.0447083 6.800537 -6.800537 6.800537l-238.08395 0c-3.755844 0 -6.8005524 -3.0447083 -6.8005524 -6.800537z" fill-rule="evenodd"/><path fill="#cccccc" d="m123.30971 363.37515l0 0c0 -3.7558289 3.0447083 -6.800537 6.8005524 -6.800537l275.06033 0c1.8036194 0 3.5333557 0.7164612 4.808716 1.9918213c1.2753296 1.2753601 1.9918213 3.0050964 1.9918213 4.808716l0 8.036713c0 3.7558289 -3.0447083 6.800537 -6.800537 6.800537l-275.06033 0c-3.755844 0 -6.8005524 -3.0447083 -6.8005524 -6.800537z" fill-rule="evenodd"/><path fill="#b7b7b7" d="m39.16798 421.55905l0 0c0 -14.620331 11.852116 -26.472443 26.472439 -26.472443l0 0c7.0209274 0 13.754295 2.7890625 18.718842 7.753601c4.964546 4.9645386 7.753601 11.6979065 7.753601 18.718842l0 0c0 14.620331 -11.852119 26.472443 -26.472443 26.472443l0 0c-14.620323 0 -26.472439 -11.852112 -26.472439 -26.472443z" fill-rule="evenodd"/><path fill="#cccccc" d="m123.30971 406.76642l0 0c0 -3.7558289 3.0447083 -6.800537 6.8005524 -6.800537l259.12332 0c1.8036194 0 3.5333557 0.7164917 4.808716 1.9918213c1.2753296 1.2753601 1.9918213 3.0050964 1.9918213 4.808716l0 8.036713c0 3.7558289 -3.0447083 6.800537 -6.800537 6.800537l-259.12332 0c-3.755844 0 -6.8005524 -3.0447083 -6.8005524 -6.800537z" fill-rule="evenodd"/><path fill="#cccccc" d="m123.30971 437.9659l0 0c0 -3.7558594 3.0447083 -6.8005676 6.8005524 -6.8005676l300.44617 0c1.8035889 0 3.5333557 0.7164917 4.8086853 1.9918518c1.2753601 1.2753296 1.9918518 3.0050964 1.9918518 4.808716l0 8.036682c0 3.7558594 -3.0447083 6.8005676 -6.800537 6.8005676l-300.44617 0c-3.755844 0 -6.8005524 -3.0447083 -6.8005524 -6.8005676z" fill-rule="evenodd"/></g></svg>