<?xml version="1.0" encoding="UTF-8"?>
<svg fill="none" stroke-linecap="square" stroke-miterlimit="10" version="1.1" viewBox="0.0 0.0 866.9212598425197 643.3569553805775" xmlns="http://www.w3.org/2000/svg">
<clipPath id="a">
<path d="m0 0h866.92v643.36h-866.92v-643.36z"/>
</clipPath>
<g clip-path="url(#a)" fill-rule="evenodd">
<path d="m0 0h866.92v643.36h-866.92z" fill="#000" fill-opacity="0"/>
<path d="m346.24 556.44h174.46c11.419 0 22.37 4.5362 30.445 12.611s12.611 19.026 12.611 30.445v38.273c0 2.6409-2.1409 4.7817-4.7817 4.7817h-251c-2.6409 0-4.7817-2.1409-4.7817-4.7817v-38.273c0-23.779 19.276-43.055 43.055-43.055z" fill="#666"/>
<path d="m0 45.608c0-25.189 20.419-45.608 45.608-45.608h775.71c12.096 0 23.697 4.8051 32.25 13.358 8.5532 8.5532 13.358 20.154 13.358 32.25v484.28c0 25.189-20.419 45.608-45.608 45.608h-775.71c-25.189 0-45.608-20.419-45.608-45.608z" fill="#434343"/>
<path d="m14.377 58.83c0-23.654 19.176-42.83 42.83-42.83h750.66c11.359 0 22.253 4.5124 30.285 12.545 8.0322 8.0322 12.545 18.926 12.545 30.285v454.78c0 23.654-19.176 42.83-42.83 42.83h-750.66c-23.654 0-42.83-19.176-42.83-42.83z" fill="#f3f3f3"/>
<path d="m13.682 55.792c0-22.03 17.859-39.889 39.889-39.889h757.23c10.579 0 20.725 4.2026 28.206 11.683 7.4808 7.4807 11.683 17.627 11.683 28.206v28.977c0 22.03-17.859 39.889-39.89 39.889h-757.23c-22.03 0-39.889-17.859-39.889-39.889z" fill="#666"/>
<path d="m14.375 51.609h835.62v77.921h-835.62z" fill="#f3f3f3"/>
<path d="m850.72 51.499v464.2c0 10.763-4.2758 21.086-11.887 28.697-7.6108 7.6109-17.933 11.887-28.697 11.887h-159.54v-504.79z" fill="#b7b7b7"/>
<path d="m663.67 129.2c0-2.7858 2.2584-5.0442 5.0442-5.0442h162.73c1.3378 0 2.6208 0.53144 3.5668 1.4774 0.94592 0.94597 1.4774 2.229 1.4774 3.5668v11.549c0 2.7858-2.2584 5.0442-5.0442 5.0442h-162.73c-2.7858 0-5.0442-2.2584-5.0442-5.0442z" fill="#efefef"/>
<path d="m663.67 77.163c0-7.8103 6.3315-14.142 14.142-14.142 3.7506 0 7.3476 1.4899 9.9997 4.142 2.6521 2.6521 4.142 6.2491 4.142 9.9997 0 7.8103-6.3315 14.142-14.142 14.142-7.8102 0-14.142-6.3315-14.142-14.142z" fill="#efefef"/>
<path d="m702.83 77.163c0-4.8271 3.9131-8.7402 8.7402-8.7402h116.19c2.318 0 4.5411 0.92084 6.1802 2.5599 1.639 1.6391 2.5599 3.8622 2.5599 6.1802 0 4.8271-3.9131 8.7402-8.7401 8.7402h-116.19c-4.8271 0-8.7402-3.9131-8.7402-8.7402z" fill="#efefef"/>
<path d="m650.6 103.49h200.13v3.0866h-200.13z" fill="#999"/>
<path d="m663.67 125.85c0-0.93266 0.75604-1.6887 1.6887-1.6887h3.8666c0.44788 0 0.87738 0.17793 1.1941 0.49462 0.31671 0.3167 0.49463 0.74624 0.49463 1.1941v18.26c0 0.93266-0.7561 1.6887-1.6887 1.6887h-3.8666c-0.93268 0-1.6887-0.75607-1.6887-1.6887z" fill="#999"/>
<path d="m663.67 163.34c0-2.7858 2.2584-5.0442 5.0442-5.0442h162.73c1.3378 0 2.6208 0.53145 3.5668 1.4774 0.94592 0.94597 1.4774 2.229 1.4774 3.5668v11.549c0 2.7858-2.2584 5.0442-5.0442 5.0442h-162.73c-2.7858 0-5.0442-2.2584-5.0442-5.0442z" fill="#efefef"/>
<path d="m663.67 159.98c0-0.93268 0.75604-1.6888 1.6887-1.6888h3.8666c0.44788 0 0.87738 0.17792 1.1941 0.49463 0.31671 0.3167 0.49463 0.74623 0.49463 1.1941v18.26c0 0.93268-0.7561 1.6888-1.6887 1.6888h-3.8666c-0.93268 0-1.6887-0.75607-1.6887-1.6888z" fill="#999"/>
<path d="m664.25 197.47c0-2.7858 2.2584-5.0442 5.0442-5.0442h162.73c1.3378 0 2.6208 0.53143 3.5668 1.4774 0.94598 0.94598 1.4774 2.229 1.4774 3.5668v11.549c0 2.7858-2.2584 5.0442-5.0442 5.0442h-162.73c-2.7858 0-5.0442-2.2584-5.0442-5.0442z" fill="#efefef"/>
<path d="m664.25 194.12c0-0.93266 0.7561-1.6887 1.6888-1.6887h3.8666c0.44788 0 0.87744 0.17792 1.1942 0.49461 0.31665 0.31671 0.49457 0.74625 0.49457 1.1941v18.26c0 0.93266-0.75604 1.6887-1.6887 1.6887h-3.8666c-0.93268 0-1.6888-0.75607-1.6888-1.6887z" fill="#999"/>
<path d="m663.67 231.61c0-2.7858 2.2584-5.0442 5.0442-5.0442h162.73c1.3378 0 2.6208 0.53145 3.5668 1.4774 0.94592 0.94597 1.4774 2.229 1.4774 3.5668v11.549c0 2.7858-2.2584 5.0442-5.0442 5.0442h-162.73c-2.7858 0-5.0442-2.2584-5.0442-5.0442z" fill="#efefef"/>
<path d="m663.67 228.25c0-0.93268 0.75604-1.6888 1.6887-1.6888h3.8666c0.44788 0 0.87738 0.17792 1.1941 0.49463 0.31671 0.3167 0.49463 0.74623 0.49463 1.1941v18.26c0 0.93268-0.7561 1.6888-1.6887 1.6888h-3.8666c-0.93268 0-1.6887-0.75607-1.6887-1.6888z" fill="#999"/>
<path d="m39.168 500.48c0-7.6101 6.1692-13.779 13.779-13.779h508.44c3.6545 0 7.1593 1.4518 9.7434 4.0359 2.5841 2.5841 4.0358 6.0889 4.0358 9.7434v16.284c0 7.6101-6.1692 13.779-13.779 13.779h-508.44c-7.6101 0-13.779-6.1692-13.779-13.779z" fill="#ccc"/>
<path d="m555.59 495.4c0-4.8081 3.8977-8.7058 8.7058-8.7058h67.439c2.309 0 4.5233 0.91724 6.1559 2.5499 1.6327 1.6326 2.5499 3.847 2.5499 6.1559v26.431c0 4.808-3.8977 8.7058-8.7058 8.7058h-67.439c-4.8081 0-8.7058-3.8978-8.7058-8.7058z" fill="#999"/>
<path d="m633.2 58.433c0-0.79444 0.64404-1.4385 1.4385-1.4385h4.3672c0.38147 0 0.74738 0.15155 1.0172 0.42131 0.26971 0.26976 0.42126 0.63564 0.42126 1.0171v419.93c0 0.79443-0.64398 1.4385-1.4384 1.4385h-4.3672c-0.79443 0-1.4385-0.64404-1.4385-1.4385z" fill="#b7b7b7"/>
<path d="m633.2 330.44c0-2.0004 1.6216-3.622 3.6221-3.622 0.96063 0 1.8819 0.38159 2.5612 1.0609 0.67926 0.67926 1.0609 1.6006 1.0609 2.5612v145.73c0 2.0004-1.6216 3.6221-3.622 3.6221-2.0004 0-3.6221-1.6217-3.6221-3.6221z" fill="#999"/>
<path d="m39.168 317c0-14.62 11.852-26.472 26.472-26.472 7.0209 0 13.754 2.7891 18.719 7.7536 4.9645 4.9645 7.7536 11.698 7.7536 18.719 0 14.62-11.852 26.472-26.472 26.472-14.62 0-26.472-11.852-26.472-26.472z" fill="#b7b7b7"/>
<path d="m123.31 300.98c0-3.7559 3.0447-6.8006 6.8006-6.8006h363.56c1.8036 0 3.5334 0.71649 4.8087 1.9919 1.2753 1.2753 1.9918 3.0051 1.9918 4.8087v8.0367c0 3.7558-3.0447 6.8005-6.8005 6.8005h-363.56c-3.7558 0-6.8006-3.0447-6.8006-6.8005z" fill="#ccc"/>
<path d="m123.31 332.18c0-3.7558 3.0447-6.8005 6.8006-6.8005h238.08c1.8036 0 3.5334 0.71649 4.8087 1.9919 1.2753 1.2753 1.9918 3.0051 1.9918 4.8087v8.0367c0 3.7558-3.0447 6.8005-6.8005 6.8005h-238.08c-3.7558 0-6.8006-3.0447-6.8006-6.8005z" fill="#ccc"/>
<path d="m123.31 363.38c0-3.7558 3.0447-6.8005 6.8006-6.8005h275.06c1.8036 0 3.5334 0.71646 4.8087 1.9918 1.2753 1.2754 1.9918 3.0051 1.9918 4.8087v8.0367c0 3.7558-3.0447 6.8005-6.8005 6.8005h-275.06c-3.7558 0-6.8006-3.0447-6.8006-6.8005z" fill="#ccc"/>
<path d="m39.168 421.56c0-14.62 11.852-26.472 26.472-26.472 7.0209 0 13.754 2.7891 18.719 7.7536 4.9645 4.9645 7.7536 11.698 7.7536 18.719 0 14.62-11.852 26.472-26.472 26.472-14.62 0-26.472-11.852-26.472-26.472z" fill="#b7b7b7"/>
<path d="m123.31 406.77c0-3.7558 3.0447-6.8005 6.8006-6.8005h259.12c1.8036 0 3.5334 0.71649 4.8087 1.9918 1.2753 1.2754 1.9918 3.0051 1.9918 4.8087v8.0367c0 3.7558-3.0447 6.8005-6.8005 6.8005h-259.12c-3.7558 0-6.8006-3.0447-6.8006-6.8005z" fill="#ccc"/>
<path d="m123.31 437.97c0-3.7559 3.0447-6.8006 6.8006-6.8006h300.45c1.8036 0 3.5334 0.71649 4.8087 1.9919 1.2754 1.2753 1.9919 3.0051 1.9919 4.8087v8.0367c0 3.7559-3.0447 6.8006-6.8005 6.8006h-300.45c-3.7558 0-6.8006-3.0447-6.8006-6.8006z" fill="#ccc"/>
</g>
</svg>
