<?xml version="1.0" encoding="UTF-8"?>
<svg fill="none" stroke-linecap="square" stroke-miterlimit="10" version="1.1" viewBox="0.0 0.0 960.0 720.0" xmlns="http://www.w3.org/2000/svg">
<clipPath id="a">
<path d="m0 0h960v720h-960v-720z"/>
</clipPath>
<g clip-path="url(#a)" fill-rule="evenodd">
<path d="m0 0h960v720h-960z" fill="#000" fill-opacity="0"/>
<path d="m323.24 458.61c-58.808-61.329-49.167-166.92 21.602-236.61 70.77-69.691 176.22-77.439 236.3-17.361z" fill="#424d63"/>
<path d="m135.93 360c0-193.49 154.05-350.34 344.07-350.34 91.253 0 178.77 36.911 243.29 102.61s100.78 154.81 100.78 247.73c0 193.49-154.05 350.34-344.07 350.34-190.03 0-344.07-156.85-344.07-350.34zm81.325 0c0 148.57 117.64 269.01 262.75 269.01s262.75-120.44 262.75-269.01-117.64-269.01-262.75-269.01-262.75 120.44-262.75 269.01z" fill="#424d63"/>
<path d="m664.8 146.83l28.089 28.089-393.52 393.52-28.089-28.089z" fill="#424d63"/>
<path d="m303.9 158.68l11.849-11.849 393.52 393.52-11.849 11.849z" fill="#424d63"/>
<path d="m252.06 189.22l11.849-11.849 393.52 393.52-11.849 11.849z" fill="#424d63"/>
<path d="m331.94 426.56c-44.261-46.637-31.779-131.59 27.979-190.44 59.758-58.848 144.5-69.632 189.96-24.174z" fill="#fff"/>
<path d="m370.93 411.45c-31.984-33.794-22.012-96.189 22.357-139.88 44.368-43.692 106.59-52.386 139.48-19.49z" fill="#424d63"/>
<path d="m632.25 259.42c58.808 61.329 49.167 166.92-21.602 236.61-70.77 69.691-176.22 77.439-236.3 17.361z" fill="#424d63"/>
<path d="m623.8 291.76c44.133 46.759 31.427 131.69-28.48 190.39-59.908 58.696-144.67 69.257-190 23.673z" fill="#fff"/>
<path d="m584.93 307.39c32.905 34.667 23.665 97.784-20.712 141.48-44.377 43.701-107.33 51.68-141.13 17.888z" fill="#424d63"/>
</g>
</svg>
