<svg version="1.1" viewBox="0.0 0.0 960.0 960.0" fill="none" stroke="none" stroke-linecap="square" stroke-miterlimit="10" xmlns:xlink="http://www.w3.org/1999/xlink" xmlns="http://www.w3.org/2000/svg"><clipPath id="p.0"><path d="m0 0l960.0 0l0 960.0l-960.0 0l0 -960.0z" clip-rule="nonzero"/></clipPath><g clip-path="url(#p.0)"><path fill="#000000" fill-opacity="0.0" d="m0 0l960.0 0l0 960.0l-960.0 0z" fill-rule="evenodd"/><path fill="#f4f4f4" d="m268.73267 612.90186l0 0c-79.25787 -82.65582 -66.26494 -224.96896 29.114563 -318.89508c95.37952 -93.92613 237.50519 -104.36798 318.4751 -23.398071z" fill-rule="evenodd"/><path fill="#f4f4f4" d="m16.279797 479.99997l0 0c0 -260.7706 207.6145 -472.16693 463.72 -472.16693l0 0c122.986176 0 240.93515 49.746017 327.89957 138.2945c86.964355 88.54849 135.82043 208.64601 135.82043 333.87244l0 0c0 260.7706 -207.6145 472.16696 -463.72 472.16696l0 0c-256.10547 0 -463.72 -211.39636 -463.72 -472.16696zm109.60486 0l0 0c0 200.23752 158.54276 362.5621 354.11514 362.5621c195.57236 0 354.11514 -162.32458 354.11514 -362.5621l0 0c0 -200.23752 -158.54279 -362.56207 -354.11514 -362.56207l0 0c-195.57239 0 -354.11514 162.32457 -354.11514 362.56207z" fill-rule="evenodd"/><path fill="#f4f4f4" d="m729.0689 192.70473l37.857178 37.85721l-530.37085 530.37085l-37.85721 -37.857178z" fill-rule="evenodd"/><path fill="#f4f4f4" d="m242.65646 208.67238l15.969086 -15.969086l530.37085 530.37085l-15.969055 15.969116z" fill-rule="evenodd"/><path fill="#f4f4f4" d="m172.79942 249.82823l15.969086 -15.969086l530.3709 530.3709l-15.969116 15.969055z" fill-rule="evenodd"/><path fill="#32292f" d="m280.45898 569.70416l0 0c-59.652496 -62.85446 -42.830658 -177.3536 37.708466 -256.66553c80.539154 -79.311905 194.74716 -93.846054 256.0129 -32.58026z" fill-rule="evenodd"/><path fill="#f4f4f4" d="m333.00732 549.33875l0 0c-43.1062 -45.545288 -29.665955 -129.63864 30.130981 -188.52441c59.796906 -58.885773 143.64948 -70.60272 187.98456 -26.267609z" fill-rule="evenodd"/><path fill="#f4f4f4" d="m685.1921 344.44144l0 0c79.257935 82.65585 66.26495 224.96896 -29.114502 318.8951c-95.37952 93.92609 -237.50522 104.36798 -318.47513 23.398071z" fill-rule="evenodd"/><path fill="#32292f" d="m673.80426 388.02725l0 0c59.47943 63.01944 42.35614 177.48672 -38.384155 256.5941c-80.740295 79.10736 -194.97415 93.340576 -256.07086 31.905762z" fill-rule="evenodd"/><path fill="#f4f4f4" d="m621.4135 409.09808l0 0c44.347168 46.722473 31.894653 131.78796 -27.91394 190.68518c-59.808594 58.897278 -144.6589 69.65198 -190.20282 24.108032z" fill-rule="evenodd"/></g></svg>