<svg version="1.1" viewBox="0.0 0.0 866.9212598425197 643.3569553805775" fill="none" stroke="none" stroke-linecap="square" stroke-miterlimit="10" xmlns:xlink="http://www.w3.org/1999/xlink" xmlns="http://www.w3.org/2000/svg"><clipPath id="p.0"><path d="m0 0l866.92126 0l0 643.35693l-866.92126 0l0 -643.35693z" clip-rule="nonzero"/></clipPath><g clip-path="url(#p.0)"><path fill="#000000" fill-opacity="0.0" d="m0 0l866.92126 0l0 643.35693l-866.92126 0z" fill-rule="evenodd"/><path fill="#434343" d="m102.27034 193.65378l0 0c0 -10.603699 8.596008 -19.199707 19.199715 -19.199707l626.451 0c5.092102 0 9.975586 2.022812 13.576233 5.623459c3.600647 3.600647 5.623474 8.484177 5.623474 13.576248l0 203.86829c0 10.603729 -8.596008 19.199707 -19.199707 19.199707l-626.451 0c-10.603706 0 -19.199715 -8.595978 -19.199715 -19.199707z" fill-rule="evenodd"/><path fill="#b7b7b7" d="m482.979 215.97281l0 0c0 -8.1996765 6.647156 -14.846817 14.846832 -14.846817l210.81027 0c3.937622 0 7.7139893 1.564209 10.498291 4.348526c2.7843018 2.784317 4.3485107 6.560669 4.3485107 10.498291l0 156.63705c0 8.1996765 -6.6470947 14.846832 -14.846802 14.846832l-210.81027 0c-8.1996765 0 -14.846832 -6.647156 -14.846832 -14.846832z" fill-rule="evenodd"/><path fill="#d9d9d9" d="m710.0866 184.23883l0 0c0 -3.409378 2.763855 -6.173218 6.173218 -6.173218l0 0c1.6372681 0 3.2074585 0.6503906 4.3651733 1.8080902c1.1576538 1.1576996 1.8080444 2.72789 1.8080444 4.3651276l0 0c0 3.409378 -2.763794 6.173233 -6.173218 6.173233l0 0c-3.4093628 0 -6.173218 -2.763855 -6.173218 -6.173233z" fill-rule="evenodd"/><path fill="#d9d9d9" d="m686.0866 184.23883l0 0c0 -3.409378 2.763855 -6.173218 6.173218 -6.173218l0 0c1.6372681 0 3.2074585 0.6503906 4.3651733 1.8080902c1.1576538 1.1576996 1.8080444 2.72789 1.8080444 4.3651276l0 0c0 3.409378 -2.763794 6.173233 -6.173218 6.173233l0 0c-3.4093628 0 -6.173218 -2.763855 -6.173218 -6.173233z" fill-rule="evenodd"/><path fill="#d9d9d9" d="m662.0866 184.23883l0 0c0 -3.409378 2.763855 -6.173218 6.173218 -6.173218l0 0c1.6372681 0 3.2074585 0.6503906 4.3651733 1.8080902c1.1576538 1.1576996 1.8080444 2.72789 1.8080444 4.3651276l0 0c0 3.409378 -2.763794 6.173233 -6.173218 6.173233l0 0c-3.4093628 0 -6.173218 -2.763855 -6.173218 -6.173233z" fill-rule="evenodd"/><path fill="#d9d9d9" d="m638.0866 184.23883l0 0c0 -3.409378 2.763855 -6.173218 6.173218 -6.173218l0 0c1.6372681 0 3.2074585 0.6503906 4.3651733 1.8080902c1.1576538 1.1576996 1.8080444 2.72789 1.8080444 4.3651276l0 0c0 3.409378 -2.763794 6.173233 -6.173218 6.173233l0 0c-3.4093628 0 -6.173218 -2.763855 -6.173218 -6.173233z" fill-rule="evenodd"/><path fill="#d9d9d9" d="m614.0866 184.23883l0 0c0 -3.409378 2.763855 -6.173218 6.173218 -6.173218l0 0c1.6372681 0 3.2074585 0.6503906 4.3651733 1.8080902c1.1576538 1.1576996 1.8080444 2.72789 1.8080444 4.3651276l0 0c0 3.409378 -2.763794 6.173233 -6.173218 6.173233l0 0c-3.4093628 0 -6.173218 -2.763855 -6.173218 -6.173233z" fill-rule="evenodd"/><path fill="#d9d9d9" d="m590.0866 184.23883l0 0c0 -3.409378 2.763855 -6.173218 6.173218 -6.173218l0 0c1.6372681 0 3.2074585 0.6503906 4.3651733 1.8080902c1.1576538 1.1576996 1.8080444 2.72789 1.8080444 4.3651276l0 0c0 3.409378 -2.763794 6.173233 -6.173218 6.173233l0 0c-3.4093628 0 -6.173218 -2.763855 -6.173218 -6.173233z" fill-rule="evenodd"/><path fill="#d9d9d9" d="m566.0866 184.23883l0 0c0 -3.409378 2.763855 -6.173218 6.173218 -6.173218l0 0c1.6372681 0 3.2074585 0.6503906 4.3651733 1.8080902c1.1576538 1.1576996 1.8080444 2.72789 1.8080444 4.3651276l0 0c0 3.409378 -2.763794 6.173233 -6.173218 6.173233l0 0c-3.4093628 0 -6.173218 -2.763855 -6.173218 -6.173233z" fill-rule="evenodd"/><path fill="#d9d9d9" d="m542.0866 184.23883l0 0c0 -3.409378 2.763855 -6.173218 6.173218 -6.173218l0 0c1.6372681 0 3.2074585 0.6503906 4.3651733 1.8080902c1.1576538 1.1576996 1.8080444 2.72789 1.8080444 4.3651276l0 0c0 3.409378 -2.763794 6.173233 -6.173218 6.173233l0 0c-3.4093628 0 -6.173218 -2.763855 -6.173218 -6.173233z" fill-rule="evenodd"/><path fill="#d9d9d9" d="m518.0866 184.23883l0 0c0 -3.409378 2.763855 -6.173218 6.173218 -6.173218l0 0c1.6372681 0 3.2074585 0.6503906 4.3651733 1.8080902c1.1576538 1.1576996 1.8080444 2.72789 1.8080444 4.3651276l0 0c0 3.409378 -2.763794 6.173233 -6.173218 6.173233l0 0c-3.4093628 0 -6.173218 -2.763855 -6.173218 -6.173233z" fill-rule="evenodd"/><path fill="#d9d9d9" d="m494.0866 184.23883l0 0c0 -3.409378 2.763855 -6.173218 6.1732483 -6.173218l0 0c1.6372375 0 3.2073975 0.6503906 4.3651123 1.8080902c1.1577148 1.1576996 1.8081055 2.72789 1.8081055 4.3651276l0 0c0 3.409378 -2.763855 6.173233 -6.173218 6.173233l0 0c-3.4093933 0 -6.1732483 -2.763855 -6.1732483 -6.173233z" fill-rule="evenodd"/><path fill="#d9d9d9" d="m470.0866 184.23883l0 0c0 -3.409378 2.763855 -6.173218 6.1732483 -6.173218l0 0c1.6372375 0 3.2073975 0.6503906 4.3651123 1.8080902c1.1577148 1.1576996 1.8081055 2.72789 1.8081055 4.3651276l0 0c0 3.409378 -2.763855 6.173233 -6.173218 6.173233l0 0c-3.4093933 0 -6.1732483 -2.763855 -6.1732483 -6.173233z" fill-rule="evenodd"/><path fill="#d9d9d9" d="m446.0866 184.23883l0 0c0 -3.409378 2.763855 -6.173218 6.1732483 -6.173218l0 0c1.6372375 0 3.2073975 0.6503906 4.3651123 1.8080902c1.1577148 1.1576996 1.8081055 2.72789 1.8081055 4.3651276l0 0c0 3.409378 -2.763855 6.173233 -6.173218 6.173233l0 0c-3.4093933 0 -6.1732483 -2.763855 -6.1732483 -6.173233z" fill-rule="evenodd"/><path fill="#d9d9d9" d="m422.0866 184.23883l0 0c0 -3.409378 2.763855 -6.173218 6.1732483 -6.173218l0 0c1.6372375 0 3.2073975 0.6503906 4.3651123 1.8080902c1.1577148 1.1576996 1.8081055 2.72789 1.8081055 4.3651276l0 0c0 3.409378 -2.763855 6.173233 -6.173218 6.173233l0 0c-3.4093933 0 -6.1732483 -2.763855 -6.1732483 -6.173233z" fill-rule="evenodd"/><path fill="#d9d9d9" d="m398.0866 184.23883l0 0c0 -3.409378 2.763855 -6.173218 6.1732483 -6.173218l0 0c1.6372375 0 3.2073975 0.6503906 4.3651123 1.8080902c1.1577148 1.1576996 1.8081055 2.72789 1.8081055 4.3651276l0 0c0 3.409378 -2.763855 6.173233 -6.173218 6.173233l0 0c-3.4093933 0 -6.1732483 -2.763855 -6.1732483 -6.173233z" fill-rule="evenodd"/><path fill="#d9d9d9" d="m374.0866 184.23883l0 0c0 -3.409378 2.763855 -6.173218 6.1732483 -6.173218l0 0c1.6372375 0 3.2073975 0.6503906 4.3651123 1.8080902c1.1577148 1.1576996 1.8081055 2.72789 1.8081055 4.3651276l0 0c0 3.409378 -2.763855 6.173233 -6.173218 6.173233l0 0c-3.4093933 0 -6.1732483 -2.763855 -6.1732483 -6.173233z" fill-rule="evenodd"/><path fill="#d9d9d9" d="m350.0866 184.23883l0 0c0 -3.409378 2.763855 -6.173218 6.1732483 -6.173218l0 0c1.6372375 0 3.2073975 0.6503906 4.3651123 1.8080902c1.1577148 1.1576996 1.8081055 2.72789 1.8081055 4.3651276l0 0c0 3.409378 -2.763855 6.173233 -6.173218 6.173233l0 0c-3.4093933 0 -6.1732483 -2.763855 -6.1732483 -6.173233z" fill-rule="evenodd"/><path fill="#d9d9d9" d="m710.0866 405.31607l0 0c0 -3.4093933 2.763855 -6.1732483 6.173218 -6.1732483l0 0c1.6372681 0 3.2074585 0.6503906 4.3651733 1.8081055c1.1576538 1.1577148 1.8080444 2.7278748 1.8080444 4.365143l0 0c0 3.4093628 -2.763794 6.173218 -6.173218 6.173218l0 0c-3.4093628 0 -6.173218 -2.763855 -6.173218 -6.173218z" fill-rule="evenodd"/><path fill="#d9d9d9" d="m686.0866 405.31607l0 0c0 -3.4093933 2.763855 -6.1732483 6.173218 -6.1732483l0 0c1.6372681 0 3.2074585 0.6503906 4.3651733 1.8081055c1.1576538 1.1577148 1.8080444 2.7278748 1.8080444 4.365143l0 0c0 3.4093628 -2.763794 6.173218 -6.173218 6.173218l0 0c-3.4093628 0 -6.173218 -2.763855 -6.173218 -6.173218z" fill-rule="evenodd"/><path fill="#d9d9d9" d="m662.0866 405.31607l0 0c0 -3.4093933 2.763855 -6.1732483 6.173218 -6.1732483l0 0c1.6372681 0 3.2074585 0.6503906 4.3651733 1.8081055c1.1576538 1.1577148 1.8080444 2.7278748 1.8080444 4.365143l0 0c0 3.4093628 -2.763794 6.173218 -6.173218 6.173218l0 0c-3.4093628 0 -6.173218 -2.763855 -6.173218 -6.173218z" fill-rule="evenodd"/><path fill="#d9d9d9" d="m638.0866 405.31607l0 0c0 -3.4093933 2.763855 -6.1732483 6.173218 -6.1732483l0 0c1.6372681 0 3.2074585 0.6503906 4.3651733 1.8081055c1.1576538 1.1577148 1.8080444 2.7278748 1.8080444 4.365143l0 0c0 3.4093628 -2.763794 6.173218 -6.173218 6.173218l0 0c-3.4093628 0 -6.173218 -2.763855 -6.173218 -6.173218z" fill-rule="evenodd"/><path fill="#d9d9d9" d="m614.0866 405.31607l0 0c0 -3.4093933 2.763855 -6.1732483 6.173218 -6.1732483l0 0c1.6372681 0 3.2074585 0.6503906 4.3651733 1.8081055c1.1576538 1.1577148 1.8080444 2.7278748 1.8080444 4.365143l0 0c0 3.4093628 -2.763794 6.173218 -6.173218 6.173218l0 0c-3.4093628 0 -6.173218 -2.763855 -6.173218 -6.173218z" fill-rule="evenodd"/><path fill="#d9d9d9" d="m590.0866 405.31607l0 0c0 -3.4093933 2.763855 -6.1732483 6.173218 -6.1732483l0 0c1.6372681 0 3.2074585 0.6503906 4.3651733 1.8081055c1.1576538 1.1577148 1.8080444 2.7278748 1.8080444 4.365143l0 0c0 3.4093628 -2.763794 6.173218 -6.173218 6.173218l0 0c-3.4093628 0 -6.173218 -2.763855 -6.173218 -6.173218z" fill-rule="evenodd"/><path fill="#d9d9d9" d="m566.0866 405.31607l0 0c0 -3.4093933 2.763855 -6.1732483 6.173218 -6.1732483l0 0c1.6372681 0 3.2074585 0.6503906 4.3651733 1.8081055c1.1576538 1.1577148 1.8080444 2.7278748 1.8080444 4.365143l0 0c0 3.4093628 -2.763794 6.173218 -6.173218 6.173218l0 0c-3.4093628 0 -6.173218 -2.763855 -6.173218 -6.173218z" fill-rule="evenodd"/><path fill="#d9d9d9" d="m542.0866 405.31607l0 0c0 -3.4093933 2.763855 -6.1732483 6.173218 -6.1732483l0 0c1.6372681 0 3.2074585 0.6503906 4.3651733 1.8081055c1.1576538 1.1577148 1.8080444 2.7278748 1.8080444 4.365143l0 0c0 3.4093628 -2.763794 6.173218 -6.173218 6.173218l0 0c-3.4093628 0 -6.173218 -2.763855 -6.173218 -6.173218z" fill-rule="evenodd"/><path fill="#d9d9d9" d="m518.0866 405.31607l0 0c0 -3.4093933 2.763855 -6.1732483 6.173218 -6.1732483l0 0c1.6372681 0 3.2074585 0.6503906 4.3651733 1.8081055c1.1576538 1.1577148 1.8080444 2.7278748 1.8080444 4.365143l0 0c0 3.4093628 -2.763794 6.173218 -6.173218 6.173218l0 0c-3.4093628 0 -6.173218 -2.763855 -6.173218 -6.173218z" fill-rule="evenodd"/><path fill="#d9d9d9" d="m494.0866 405.31607l0 0c0 -3.4093933 2.763855 -6.1732483 6.1732483 -6.1732483l0 0c1.6372375 0 3.2073975 0.6503906 4.3651123 1.8081055c1.1577148 1.1577148 1.8081055 2.7278748 1.8081055 4.365143l0 0c0 3.4093628 -2.763855 6.173218 -6.173218 6.173218l0 0c-3.4093933 0 -6.1732483 -2.763855 -6.1732483 -6.173218z" fill-rule="evenodd"/><path fill="#d9d9d9" d="m470.0866 405.31607l0 0c0 -3.4093933 2.763855 -6.1732483 6.1732483 -6.1732483l0 0c1.6372375 0 3.2073975 0.6503906 4.3651123 1.8081055c1.1577148 1.1577148 1.8081055 2.7278748 1.8081055 4.365143l0 0c0 3.4093628 -2.763855 6.173218 -6.173218 6.173218l0 0c-3.4093933 0 -6.1732483 -2.763855 -6.1732483 -6.173218z" fill-rule="evenodd"/><path fill="#d9d9d9" d="m446.0866 405.31607l0 0c0 -3.4093933 2.763855 -6.1732483 6.1732483 -6.1732483l0 0c1.6372375 0 3.2073975 0.6503906 4.3651123 1.8081055c1.1577148 1.1577148 1.8081055 2.7278748 1.8081055 4.365143l0 0c0 3.4093628 -2.763855 6.173218 -6.173218 6.173218l0 0c-3.4093933 0 -6.1732483 -2.763855 -6.1732483 -6.173218z" fill-rule="evenodd"/><path fill="#d9d9d9" d="m422.0866 405.31607l0 0c0 -3.4093933 2.763855 -6.1732483 6.1732483 -6.1732483l0 0c1.6372375 0 3.2073975 0.6503906 4.3651123 1.8081055c1.1577148 1.1577148 1.8081055 2.7278748 1.8081055 4.365143l0 0c0 3.4093628 -2.763855 6.173218 -6.173218 6.173218l0 0c-3.4093933 0 -6.1732483 -2.763855 -6.1732483 -6.173218z" fill-rule="evenodd"/><path fill="#d9d9d9" d="m398.0866 405.31607l0 0c0 -3.4093933 2.763855 -6.1732483 6.1732483 -6.1732483l0 0c1.6372375 0 3.2073975 0.6503906 4.3651123 1.8081055c1.1577148 1.1577148 1.8081055 2.7278748 1.8081055 4.365143l0 0c0 3.4093628 -2.763855 6.173218 -6.173218 6.173218l0 0c-3.4093933 0 -6.1732483 -2.763855 -6.1732483 -6.173218z" fill-rule="evenodd"/><path fill="#d9d9d9" d="m374.0866 405.31607l0 0c0 -3.4093933 2.763855 -6.1732483 6.1732483 -6.1732483l0 0c1.6372375 0 3.2073975 0.6503906 4.3651123 1.8081055c1.1577148 1.1577148 1.8081055 2.7278748 1.8081055 4.365143l0 0c0 3.4093628 -2.763855 6.173218 -6.173218 6.173218l0 0c-3.4093933 0 -6.1732483 -2.763855 -6.1732483 -6.173218z" fill-rule="evenodd"/><path fill="#d9d9d9" d="m350.0866 405.31607l0 0c0 -3.4093933 2.763855 -6.1732483 6.1732483 -6.1732483l0 0c1.6372375 0 3.2073975 0.6503906 4.3651123 1.8081055c1.1577148 1.1577148 1.8081055 2.7278748 1.8081055 4.365143l0 0c0 3.4093628 -2.763855 6.173218 -6.173218 6.173218l0 0c-3.4093933 0 -6.1732483 -2.763855 -6.1732483 -6.173218z" fill-rule="evenodd"/><path fill="#d9d9d9" d="m92.8399 254.24104l0 0c0 -4.006363 3.2478027 -7.2541656 7.2541656 -7.2541656l55.129463 0c1.9239197 0 3.769043 0.7642822 5.129471 2.1246948c1.3604126 1.3604279 2.1246948 3.2055511 2.1246948 5.129471l0 82.49953c0 4.006378 -3.2478027 7.254181 -7.2541656 7.254181l-55.129463 0c-4.006363 0 -7.2541656 -3.2478027 -7.2541656 -7.254181z" fill-rule="evenodd"/><path fill="#d9d9d9" d="m196.79527 376.43765l0 0c0 -2.5943604 2.1031494 -4.6975403 4.697525 -4.6975403l108.24274 0c1.2458801 0 2.4407043 0.49493408 3.3216553 1.375885c0.8809509 0.8809509 1.375885 2.0758057 1.375885 3.3216553l0 39.20337c0 2.5943909 -2.1031494 4.6975403 -4.6975403 4.6975403l-108.24274 0c-2.5943756 0 -4.697525 -2.1031494 -4.697525 -4.6975403z" fill-rule="evenodd"/><path fill="#666666" d="m217.10236 300.09906l0 0c0 -2.5943604 2.1031647 -4.69751 4.697525 -4.69751l108.24275 0c1.2458496 0 2.4407043 0.49490356 3.3216553 1.3758545c0.8809509 0.88098145 1.3758545 2.0758057 1.3758545 3.3216553l0 39.2034c0 2.5943604 -2.1031494 4.69751 -4.69751 4.69751l-108.24275 0c-2.5943604 0 -4.697525 -2.1031494 -4.697525 -4.69751z" fill-rule="evenodd"/><path fill="#cccccc" d="m345.44095 315.33386l0 0c0 -1.6948242 1.3739319 -3.068756 3.068756 -3.068756l118.523895 0c0.8138733 0 1.5944519 0.32330322 2.1699524 0.8988037c0.5755005 0.5755005 0.8988037 1.3560486 0.8988037 2.1699524l0 25.610504c0 1.6948242 -1.3739319 3.068756 -3.068756 3.068756l-118.523895 0c-1.6948242 0 -3.068756 -1.3739319 -3.068756 -3.068756z" fill-rule="evenodd"/><path fill="#b7b7b7" d="m126.27559 174.81776l0 0c0 -3.0043335 2.4354858 -5.439804 5.439804 -5.439804l72.49046 0c1.4427338 0 2.8263702 0.5731201 3.846527 1.593277c1.0201721 1.0201569 1.5932922 2.4037933 1.5932922 3.846527l0 41.34085c0 3.0043182 -2.4354858 5.439804 -5.4398193 5.439804l-72.49046 0l0 0c-3.0043182 0 -5.439804 -2.4354858 -5.439804 -5.439804z" fill-rule="evenodd"/><path fill="#b7b7b7" d="m237.92914 172.68515l0 0c0 -1.8265228 1.4806824 -3.30719 3.30719 -3.30719l50.708435 0c0.87713623 0 1.7183228 0.34843445 2.338562 0.9686432c0.62020874 0.620224 0.96865845 1.4614258 0.96865845 2.3385468l0 25.133636c0 1.8265228 -1.4806824 3.3072052 -3.3072205 3.3072052l-50.708435 0c-1.8265076 0 -3.30719 -1.4806824 -3.30719 -3.3072052z" fill-rule="evenodd"/><path fill="#666666" d="m450.43307 357.60312l0 0c0 -1.0491638 0.8505249 -1.8997192 1.8997192 -1.8997192l15.854095 0c0.5038452 0 0.98706055 0.2001648 1.3433228 0.556427c0.3562622 0.3562622 0.5563965 0.839447 0.5563965 1.3432922l0 27.948608c0 1.0491943 -0.8505249 1.8997192 -1.8997192 1.8997192l-15.854095 0c-1.0491943 0 -1.8997192 -0.8505249 -1.8997192 -1.8997192z" fill-rule="evenodd"/><path fill="#666666" d="m423.63385 357.60312l0 0c0 -1.0491638 0.8505249 -1.8997192 1.8997192 -1.8997192l15.854126 0c0.5038147 0 0.98703 0.2001648 1.3432922 0.556427c0.3562622 0.3562622 0.556427 0.839447 0.556427 1.3432922l0 27.948608c0 1.0491943 -0.8505554 1.8997192 -1.8997192 1.8997192l-15.854126 0c-1.0491943 0 -1.8997192 -0.8505249 -1.8997192 -1.8997192z" fill-rule="evenodd"/><path fill="#666666" d="m237.92906 238.1644l0 0c0 -1.3367004 1.0836029 -2.4203033 2.4203033 -2.4203033l40.923157 0c0.64190674 0 1.2575378 0.25498962 1.7114258 0.7088928c0.45388794 0.45388794 0.7088928 1.0695038 0.7088928 1.7114105l0 20.198761c0 1.3367004 -1.0836182 2.4203186 -2.4203186 2.4203186l-40.923157 0c-1.3367004 0 -2.4203033 -1.0836182 -2.4203033 -2.4203186z" fill-rule="evenodd"/><path fill="#666666" d="m423.63516 272.7825l0 0c0 -1.3367004 1.0836182 -2.420288 2.4203186 -2.420288l40.923157 0c0.64190674 0 1.2575378 0.25497437 1.7114258 0.7088928c0.45388794 0.45388794 0.7088928 1.0694885 0.7088928 1.7113953l0 20.198761c0 1.3367004 -1.0836182 2.4203186 -2.4203186 2.4203186l-40.923157 0c-1.3367004 0 -2.4203186 -1.0836182 -2.4203186 -2.4203186z" fill-rule="evenodd"/><path fill="#666666" d="m423.63516 241.2392l0 0c0 -1.3366852 1.0836182 -2.4203033 2.4203186 -2.4203033l40.923157 0c0.64190674 0 1.2575378 0.25500488 1.7114258 0.7088928c0.45388794 0.4539032 0.7088928 1.069519 0.7088928 1.7114105l0 20.198761c0 1.3367004 -1.0836182 2.4203186 -2.4203186 2.4203186l-40.923157 0c-1.3367004 0 -2.4203186 -1.0836182 -2.4203186 -2.4203186z" fill-rule="evenodd"/></g></svg>