<?xml version="1.0" encoding="UTF-8"?>
<svg fill="none" stroke-linecap="square" stroke-miterlimit="10" version="1.1" viewBox="0.0 0.0 866.9212598425197 643.3569553805775" xmlns="http://www.w3.org/2000/svg">
<clipPath id="a">
<path d="m0 0h866.92v643.36h-866.92v-643.36z"/>
</clipPath>
<g clip-path="url(#a)" fill-rule="evenodd">
<path d="m0 0h866.92v643.36h-866.92z" fill="#000" fill-opacity="0"/>
<path d="m102.27 193.65c0-10.604 8.596-19.2 19.2-19.2h626.45c5.0921 0 9.9756 2.0228 13.576 5.6235s5.6235 8.4842 5.6235 13.576v203.87c0 10.604-8.596 19.2-19.2 19.2h-626.45c-10.604 0-19.2-8.596-19.2-19.2z" fill="#434343"/>
<path d="m482.98 215.97c0-8.1997 6.6472-14.847 14.847-14.847h210.81c3.9376 0 7.714 1.5642 10.498 4.3485 2.7843 2.7843 4.3485 6.5607 4.3485 10.498v156.64c0 8.1997-6.6471 14.847-14.847 14.847h-210.81c-8.1997 0-14.847-6.6472-14.847-14.847z" fill="#b7b7b7"/>
<path d="m710.09 184.24c0-3.4094 2.7639-6.1732 6.1732-6.1732 1.6373 0 3.2075 0.65039 4.3652 1.8081 1.1577 1.1577 1.808 2.7279 1.808 4.3651 0 3.4094-2.7638 6.1732-6.1732 6.1732-3.4094 0-6.1732-2.7639-6.1732-6.1732z" fill="#d9d9d9"/>
<path d="m686.09 184.24c0-3.4094 2.7639-6.1732 6.1732-6.1732 1.6373 0 3.2075 0.65039 4.3652 1.8081 1.1577 1.1577 1.808 2.7279 1.808 4.3651 0 3.4094-2.7638 6.1732-6.1732 6.1732-3.4094 0-6.1732-2.7639-6.1732-6.1732z" fill="#d9d9d9"/>
<path d="m662.09 184.24c0-3.4094 2.7639-6.1732 6.1732-6.1732 1.6373 0 3.2075 0.65039 4.3652 1.8081 1.1577 1.1577 1.808 2.7279 1.808 4.3651 0 3.4094-2.7638 6.1732-6.1732 6.1732-3.4094 0-6.1732-2.7639-6.1732-6.1732z" fill="#d9d9d9"/>
<path d="m638.09 184.24c0-3.4094 2.7639-6.1732 6.1732-6.1732 1.6373 0 3.2075 0.65039 4.3652 1.8081 1.1577 1.1577 1.808 2.7279 1.808 4.3651 0 3.4094-2.7638 6.1732-6.1732 6.1732-3.4094 0-6.1732-2.7639-6.1732-6.1732z" fill="#d9d9d9"/>
<path d="m614.09 184.24c0-3.4094 2.7639-6.1732 6.1732-6.1732 1.6373 0 3.2075 0.65039 4.3652 1.8081 1.1577 1.1577 1.808 2.7279 1.808 4.3651 0 3.4094-2.7638 6.1732-6.1732 6.1732-3.4094 0-6.1732-2.7639-6.1732-6.1732z" fill="#d9d9d9"/>
<path d="m590.09 184.24c0-3.4094 2.7639-6.1732 6.1732-6.1732 1.6373 0 3.2075 0.65039 4.3652 1.8081 1.1577 1.1577 1.808 2.7279 1.808 4.3651 0 3.4094-2.7638 6.1732-6.1732 6.1732-3.4094 0-6.1732-2.7639-6.1732-6.1732z" fill="#d9d9d9"/>
<path d="m566.09 184.24c0-3.4094 2.7639-6.1732 6.1732-6.1732 1.6373 0 3.2075 0.65039 4.3652 1.8081 1.1577 1.1577 1.808 2.7279 1.808 4.3651 0 3.4094-2.7638 6.1732-6.1732 6.1732-3.4094 0-6.1732-2.7639-6.1732-6.1732z" fill="#d9d9d9"/>
<path d="m542.09 184.24c0-3.4094 2.7639-6.1732 6.1732-6.1732 1.6373 0 3.2075 0.65039 4.3652 1.8081 1.1577 1.1577 1.808 2.7279 1.808 4.3651 0 3.4094-2.7638 6.1732-6.1732 6.1732-3.4094 0-6.1732-2.7639-6.1732-6.1732z" fill="#d9d9d9"/>
<path d="m518.09 184.24c0-3.4094 2.7639-6.1732 6.1732-6.1732 1.6373 0 3.2075 0.65039 4.3652 1.8081 1.1577 1.1577 1.808 2.7279 1.808 4.3651 0 3.4094-2.7638 6.1732-6.1732 6.1732-3.4094 0-6.1732-2.7639-6.1732-6.1732z" fill="#d9d9d9"/>
<path d="m494.09 184.24c0-3.4094 2.7639-6.1732 6.1732-6.1732 1.6372 0 3.2074 0.65039 4.3651 1.8081s1.8081 2.7279 1.8081 4.3651c0 3.4094-2.7639 6.1732-6.1732 6.1732-3.4094 0-6.1732-2.7639-6.1732-6.1732z" fill="#d9d9d9"/>
<path d="m470.09 184.24c0-3.4094 2.7639-6.1732 6.1732-6.1732 1.6372 0 3.2074 0.65039 4.3651 1.8081s1.8081 2.7279 1.8081 4.3651c0 3.4094-2.7639 6.1732-6.1732 6.1732-3.4094 0-6.1732-2.7639-6.1732-6.1732z" fill="#d9d9d9"/>
<path d="m446.09 184.24c0-3.4094 2.7639-6.1732 6.1732-6.1732 1.6372 0 3.2074 0.65039 4.3651 1.8081s1.8081 2.7279 1.8081 4.3651c0 3.4094-2.7639 6.1732-6.1732 6.1732-3.4094 0-6.1732-2.7639-6.1732-6.1732z" fill="#d9d9d9"/>
<path d="m422.09 184.24c0-3.4094 2.7639-6.1732 6.1732-6.1732 1.6372 0 3.2074 0.65039 4.3651 1.8081s1.8081 2.7279 1.8081 4.3651c0 3.4094-2.7639 6.1732-6.1732 6.1732-3.4094 0-6.1732-2.7639-6.1732-6.1732z" fill="#d9d9d9"/>
<path d="m398.09 184.24c0-3.4094 2.7639-6.1732 6.1732-6.1732 1.6372 0 3.2074 0.65039 4.3651 1.8081s1.8081 2.7279 1.8081 4.3651c0 3.4094-2.7639 6.1732-6.1732 6.1732-3.4094 0-6.1732-2.7639-6.1732-6.1732z" fill="#d9d9d9"/>
<path d="m374.09 184.24c0-3.4094 2.7639-6.1732 6.1732-6.1732 1.6372 0 3.2074 0.65039 4.3651 1.8081s1.8081 2.7279 1.8081 4.3651c0 3.4094-2.7639 6.1732-6.1732 6.1732-3.4094 0-6.1732-2.7639-6.1732-6.1732z" fill="#d9d9d9"/>
<path d="m350.09 184.24c0-3.4094 2.7639-6.1732 6.1732-6.1732 1.6372 0 3.2074 0.65039 4.3651 1.8081s1.8081 2.7279 1.8081 4.3651c0 3.4094-2.7639 6.1732-6.1732 6.1732-3.4094 0-6.1732-2.7639-6.1732-6.1732z" fill="#d9d9d9"/>
<path d="m710.09 405.32c0-3.4094 2.7639-6.1732 6.1732-6.1732 1.6373 0 3.2075 0.65039 4.3652 1.8081 1.1577 1.1577 1.808 2.7279 1.808 4.3651 0 3.4094-2.7638 6.1732-6.1732 6.1732-3.4094 0-6.1732-2.7639-6.1732-6.1732z" fill="#d9d9d9"/>
<path d="m686.09 405.32c0-3.4094 2.7639-6.1732 6.1732-6.1732 1.6373 0 3.2075 0.65039 4.3652 1.8081 1.1577 1.1577 1.808 2.7279 1.808 4.3651 0 3.4094-2.7638 6.1732-6.1732 6.1732-3.4094 0-6.1732-2.7639-6.1732-6.1732z" fill="#d9d9d9"/>
<path d="m662.09 405.32c0-3.4094 2.7639-6.1732 6.1732-6.1732 1.6373 0 3.2075 0.65039 4.3652 1.8081 1.1577 1.1577 1.808 2.7279 1.808 4.3651 0 3.4094-2.7638 6.1732-6.1732 6.1732-3.4094 0-6.1732-2.7639-6.1732-6.1732z" fill="#d9d9d9"/>
<path d="m638.09 405.32c0-3.4094 2.7639-6.1732 6.1732-6.1732 1.6373 0 3.2075 0.65039 4.3652 1.8081 1.1577 1.1577 1.808 2.7279 1.808 4.3651 0 3.4094-2.7638 6.1732-6.1732 6.1732-3.4094 0-6.1732-2.7639-6.1732-6.1732z" fill="#d9d9d9"/>
<path d="m614.09 405.32c0-3.4094 2.7639-6.1732 6.1732-6.1732 1.6373 0 3.2075 0.65039 4.3652 1.8081 1.1577 1.1577 1.808 2.7279 1.808 4.3651 0 3.4094-2.7638 6.1732-6.1732 6.1732-3.4094 0-6.1732-2.7639-6.1732-6.1732z" fill="#d9d9d9"/>
<path d="m590.09 405.32c0-3.4094 2.7639-6.1732 6.1732-6.1732 1.6373 0 3.2075 0.65039 4.3652 1.8081 1.1577 1.1577 1.808 2.7279 1.808 4.3651 0 3.4094-2.7638 6.1732-6.1732 6.1732-3.4094 0-6.1732-2.7639-6.1732-6.1732z" fill="#d9d9d9"/>
<path d="m566.09 405.32c0-3.4094 2.7639-6.1732 6.1732-6.1732 1.6373 0 3.2075 0.65039 4.3652 1.8081 1.1577 1.1577 1.808 2.7279 1.808 4.3651 0 3.4094-2.7638 6.1732-6.1732 6.1732-3.4094 0-6.1732-2.7639-6.1732-6.1732z" fill="#d9d9d9"/>
<path d="m542.09 405.32c0-3.4094 2.7639-6.1732 6.1732-6.1732 1.6373 0 3.2075 0.65039 4.3652 1.8081 1.1577 1.1577 1.808 2.7279 1.808 4.3651 0 3.4094-2.7638 6.1732-6.1732 6.1732-3.4094 0-6.1732-2.7639-6.1732-6.1732z" fill="#d9d9d9"/>
<path d="m518.09 405.32c0-3.4094 2.7639-6.1732 6.1732-6.1732 1.6373 0 3.2075 0.65039 4.3652 1.8081 1.1577 1.1577 1.808 2.7279 1.808 4.3651 0 3.4094-2.7638 6.1732-6.1732 6.1732-3.4094 0-6.1732-2.7639-6.1732-6.1732z" fill="#d9d9d9"/>
<path d="m494.09 405.32c0-3.4094 2.7639-6.1732 6.1732-6.1732 1.6372 0 3.2074 0.65039 4.3651 1.8081 1.1577 1.1577 1.8081 2.7279 1.8081 4.3651 0 3.4094-2.7639 6.1732-6.1732 6.1732-3.4094 0-6.1732-2.7639-6.1732-6.1732z" fill="#d9d9d9"/>
<path d="m470.09 405.32c0-3.4094 2.7639-6.1732 6.1732-6.1732 1.6372 0 3.2074 0.65039 4.3651 1.8081 1.1577 1.1577 1.8081 2.7279 1.8081 4.3651 0 3.4094-2.7639 6.1732-6.1732 6.1732-3.4094 0-6.1732-2.7639-6.1732-6.1732z" fill="#d9d9d9"/>
<path d="m446.09 405.32c0-3.4094 2.7639-6.1732 6.1732-6.1732 1.6372 0 3.2074 0.65039 4.3651 1.8081 1.1577 1.1577 1.8081 2.7279 1.8081 4.3651 0 3.4094-2.7639 6.1732-6.1732 6.1732-3.4094 0-6.1732-2.7639-6.1732-6.1732z" fill="#d9d9d9"/>
<path d="m422.09 405.32c0-3.4094 2.7639-6.1732 6.1732-6.1732 1.6372 0 3.2074 0.65039 4.3651 1.8081 1.1577 1.1577 1.8081 2.7279 1.8081 4.3651 0 3.4094-2.7639 6.1732-6.1732 6.1732-3.4094 0-6.1732-2.7639-6.1732-6.1732z" fill="#d9d9d9"/>
<path d="m398.09 405.32c0-3.4094 2.7639-6.1732 6.1732-6.1732 1.6372 0 3.2074 0.65039 4.3651 1.8081 1.1577 1.1577 1.8081 2.7279 1.8081 4.3651 0 3.4094-2.7639 6.1732-6.1732 6.1732-3.4094 0-6.1732-2.7639-6.1732-6.1732z" fill="#d9d9d9"/>
<path d="m374.09 405.32c0-3.4094 2.7639-6.1732 6.1732-6.1732 1.6372 0 3.2074 0.65039 4.3651 1.8081 1.1577 1.1577 1.8081 2.7279 1.8081 4.3651 0 3.4094-2.7639 6.1732-6.1732 6.1732-3.4094 0-6.1732-2.7639-6.1732-6.1732z" fill="#d9d9d9"/>
<path d="m350.09 405.32c0-3.4094 2.7639-6.1732 6.1732-6.1732 1.6372 0 3.2074 0.65039 4.3651 1.8081 1.1577 1.1577 1.8081 2.7279 1.8081 4.3651 0 3.4094-2.7639 6.1732-6.1732 6.1732-3.4094 0-6.1732-2.7639-6.1732-6.1732z" fill="#d9d9d9"/>
<path d="m92.84 254.24c0-4.0064 3.2478-7.2542 7.2542-7.2542h55.129c1.9239 0 3.769 0.76428 5.1295 2.1247 1.3604 1.3604 2.1247 3.2056 2.1247 5.1295v82.5c0 4.0064-3.2478 7.2542-7.2542 7.2542h-55.129c-4.0064 0-7.2542-3.2478-7.2542-7.2542z" fill="#d9d9d9"/>
<path d="m196.8 376.44c0-2.5944 2.1031-4.6975 4.6975-4.6975h108.24c1.2459 0 2.4407 0.49493 3.3217 1.3759 0.88095 0.88095 1.3759 2.0758 1.3759 3.3217v39.203c0 2.5944-2.1031 4.6975-4.6975 4.6975h-108.24c-2.5944 0-4.6975-2.1031-4.6975-4.6975z" fill="#d9d9d9"/>
<path d="m217.1 300.1c0-2.5944 2.1032-4.6975 4.6975-4.6975h108.24c1.2458 0 2.4407 0.4949 3.3217 1.3759 0.88095 0.88098 1.3759 2.0758 1.3759 3.3217v39.203c0 2.5944-2.1031 4.6975-4.6975 4.6975h-108.24c-2.5944 0-4.6975-2.1031-4.6975-4.6975z" fill="#666"/>
<path d="m345.44 315.33c0-1.6948 1.3739-3.0688 3.0688-3.0688h118.52c0.81387 0 1.5945 0.3233 2.17 0.8988 0.5755 0.5755 0.8988 1.356 0.8988 2.17v25.611c0 1.6948-1.3739 3.0688-3.0688 3.0688h-118.52c-1.6948 0-3.0688-1.3739-3.0688-3.0688z" fill="#ccc"/>
<path d="m126.28 174.82c0-3.0043 2.4355-5.4398 5.4398-5.4398h72.49c1.4427 0 2.8264 0.57312 3.8465 1.5933 1.0202 1.0202 1.5933 2.4038 1.5933 3.8465v41.341c0 3.0043-2.4355 5.4398-5.4398 5.4398h-72.49c-3.0043 0-5.4398-2.4355-5.4398-5.4398z" fill="#b7b7b7"/>
<path d="m237.93 172.69c0-1.8265 1.4807-3.3072 3.3072-3.3072h50.708c0.87714 0 1.7183 0.34843 2.3386 0.96864 0.62021 0.62022 0.96866 1.4614 0.96866 2.3385v25.134c0 1.8265-1.4807 3.3072-3.3072 3.3072h-50.708c-1.8265 0-3.3072-1.4807-3.3072-3.3072z" fill="#b7b7b7"/>
<path d="m450.43 357.6c0-1.0492 0.85052-1.8997 1.8997-1.8997h15.854c0.50385 0 0.98706 0.20016 1.3433 0.55643 0.35626 0.35626 0.5564 0.83945 0.5564 1.3433v27.949c0 1.0492-0.85052 1.8997-1.8997 1.8997h-15.854c-1.0492 0-1.8997-0.85052-1.8997-1.8997z" fill="#666"/>
<path d="m423.63 357.6c0-1.0492 0.85052-1.8997 1.8997-1.8997h15.854c0.50381 0 0.98703 0.20016 1.3433 0.55643s0.55643 0.83945 0.55643 1.3433v27.949c0 1.0492-0.85056 1.8997-1.8997 1.8997h-15.854c-1.0492 0-1.8997-0.85052-1.8997-1.8997z" fill="#666"/>
<path d="m237.93 238.16c0-1.3367 1.0836-2.4203 2.4203-2.4203h40.923c0.64191 0 1.2575 0.25499 1.7114 0.70889 0.45389 0.45389 0.70889 1.0695 0.70889 1.7114v20.199c0 1.3367-1.0836 2.4203-2.4203 2.4203h-40.923c-1.3367 0-2.4203-1.0836-2.4203-2.4203z" fill="#666"/>
<path d="m423.64 272.78c0-1.3367 1.0836-2.4203 2.4203-2.4203h40.923c0.64191 0 1.2575 0.25497 1.7114 0.70889 0.45389 0.45389 0.70889 1.0695 0.70889 1.7114v20.199c0 1.3367-1.0836 2.4203-2.4203 2.4203h-40.923c-1.3367 0-2.4203-1.0836-2.4203-2.4203z" fill="#666"/>
<path d="m423.64 241.24c0-1.3367 1.0836-2.4203 2.4203-2.4203h40.923c0.64191 0 1.2575 0.255 1.7114 0.70889 0.45389 0.4539 0.70889 1.0695 0.70889 1.7114v20.199c0 1.3367-1.0836 2.4203-2.4203 2.4203h-40.923c-1.3367 0-2.4203-1.0836-2.4203-2.4203z" fill="#666"/>
</g>
</svg>
