<svg version="1.1" viewBox="0.0 0.0 405.28608923884514 643.7690288713911" fill="none" stroke="none" stroke-linecap="square" stroke-miterlimit="10" xmlns:xlink="http://www.w3.org/1999/xlink" xmlns="http://www.w3.org/2000/svg"><clipPath id="p.0"><path d="m0 0l405.2861 0l0 643.76904l-405.2861 0l0 -643.76904z" clip-rule="nonzero"/></clipPath><g clip-path="url(#p.0)"><path fill="#000000" fill-opacity="0.0" d="m0 0l405.2861 0l0 643.76904l-405.2861 0z" fill-rule="evenodd"/><path fill="#434343" d="m38.972576 30.517282l0 0c0 -16.033062 12.997364 -29.030428 29.03043 -29.030428l308.25372 0c7.699341 0 15.0833435 3.0585542 20.527588 8.502815c5.444275 5.4442616 8.502838 12.828264 8.502838 20.527613l0 582.73456c0 16.03302 -12.9973755 29.030396 -29.030426 29.030396l-308.25372 0c-16.033066 0 -29.03043 -12.9973755 -29.03043 -29.030396z" fill-rule="evenodd"/><path fill="#f3f3f3" d="m49.82156 39.838886l0 0c0 -15.087313 12.230686 -27.317997 27.317997 -27.317997l290.07062 0c7.245178 0 14.193634 2.8781376 19.316742 8.001256c5.123108 5.1231194 8.001251 12.07156 8.001251 19.316742l0 561.31024c0 15.087341 -12.230682 27.318054 -27.317993 27.318054l-290.07062 0c-15.087311 0 -27.317997 -12.230713 -27.317997 -27.318054z" fill-rule="evenodd"/><path fill="#666666" d="m49.532715 39.9468l0 0c0 -15.185951 12.310646 -27.496595 27.496597 -27.496595l290.01355 0c7.2925415 0 14.286407 2.8969545 19.443024 8.053566c5.156616 5.1566124 8.053589 12.150476 8.053589 19.44303l0 19.97435c0 15.185951 -12.310669 27.49659 -27.496613 27.49659l-290.01355 0c-15.185951 0 -27.496597 -12.310638 -27.496597 -27.49659z" fill-rule="evenodd"/><path fill="#f3f3f3" d="m49.818336 37.065723l344.40652 0l0 53.71973l-344.40652 0z" fill-rule="evenodd"/><path fill="#b7b7b7" d="m64.304955 63.915123l0 0c0 -10.491741 8.505234 -18.996979 18.996979 -18.996979l0 0c5.038307 0 9.87027 2.001461 13.432892 5.564087c3.562622 3.562622 5.564087 8.394581 5.564087 13.432892l0 0c0 10.491737 -8.505241 18.996979 -18.996979 18.996979l0 0c-10.491745 0 -18.996979 -8.505241 -18.996979 -18.996979z" fill-rule="evenodd"/><path fill="#cccccc" d="m110.30994 63.93098l0 0c0 -6.0994644 4.9445953 -11.044056 11.04406 -11.044056l129.94772 0c2.929062 0 5.738159 1.1635666 7.809326 3.2347298c2.071167 2.0711594 3.2347412 4.8802605 3.2347412 7.809326l0 0l0 0c0 6.0994606 -4.9446106 11.044056 -11.044067 11.044056l-129.94772 0c-6.0994644 0 -11.04406 -4.9445953 -11.04406 -11.044056z" fill-rule="evenodd"/><path fill="#999999" d="m67.07137 204.48349l0 0c0 -37.82332 30.66185 -68.48517 68.48516 -68.48517l0 0c18.163391 0 35.582855 7.215378 48.426315 20.058838c12.84346 12.84346 20.058838 30.262924 20.058838 48.42633l0 0c0 37.823303 -30.66185 68.48514 -68.48515 68.48514l0 0c-37.82331 0 -68.48516 -30.661835 -68.48516 -68.48514zm34.242577 0l0 0c0 18.911652 15.330925 34.24257 34.242584 34.24257c18.911652 0 34.24257 -15.330917 34.24257 -34.24257c0 -18.911667 -15.330917 -34.242584 -34.24257 -34.242584l0 0c-18.91166 0 -34.242584 15.330917 -34.242584 34.242584z" fill-rule="evenodd"/><path fill="#666666" d="m193.32161 241.3128l0 0c-17.652283 27.717346 -52.503555 38.989807 -83.04412 26.860199c-30.540573 -12.129608 -48.160988 -44.241913 -41.98619 -76.517685c6.1747894 -32.275787 34.4041 -55.61641 67.265236 -55.61641l0 34.24257c-16.430573 0 -30.545227 11.670319 -33.63262 27.808212c-3.0873947 16.137894 5.722809 32.19403 20.993095 38.258835c15.270294 6.064804 32.695923 0.4285736 41.522064 -13.430084z" fill-rule="evenodd"/><path fill="#666666" d="m243.86894 187.49864l37.993942 0l0 85.47139l-37.993942 0z" fill-rule="evenodd"/><path fill="#666666" d="m290.40048 143.48941l37.993958 0l0 129.52759l-37.993958 0z" fill-rule="evenodd"/><path fill="#666666" d="m336.932 213.64145l37.993958 0l0 59.421844l-37.993958 0z" fill-rule="evenodd"/><path fill="#b7b7b7" d="m367.07504 628.44214l-290.14047 0c-7.196129 0 -14.097515 -2.8586426 -19.185947 -7.9470825c-5.0884285 -5.08844 -7.9470787 -11.989807 -7.9470787 -19.185913l0 -274.17767c0 -0.0015869141 0.001285553 -0.0028686523 0.0028686523 -0.0028686523l344.40366 0.0028686523l0 0c0.0015869141 0 0.0028686523 0.0012817383 0.0028686523 0.0028686523l-0.0028686523 274.1748l0 0c0 14.985107 -12.147888 27.132996 -27.133026 27.132996z" fill-rule="evenodd"/><path fill="#efefef" d="m68.08075 378.78082l0 0c0 -5.022217 4.071312 -9.093536 9.093521 -9.093536l289.66602 0c2.4117737 0 4.7247314 0.95806885 6.4301147 2.6634216c1.7053528 1.7053833 2.6634216 4.018341 2.6634216 6.4301147l0 36.372986c0 5.022217 -4.0713196 9.093536 -9.093536 9.093536l-289.66602 0c-5.022209 0 -9.093521 -4.0713196 -9.093521 -9.093536z" fill-rule="evenodd"/><path fill="#efefef" d="m68.08075 447.59494l0 0c0 -5.022217 4.071312 -9.093536 9.093521 -9.093536l289.66602 0c2.4117737 0 4.7247314 0.95806885 6.4301147 2.6634521c1.7053528 1.7053528 2.6634216 4.018341 2.6634216 6.430084l0 36.372986c0 5.022217 -4.0713196 9.093536 -9.093536 9.093536l-289.66602 0c-5.022209 0 -9.093521 -4.0713196 -9.093521 -9.093536z" fill-rule="evenodd"/><path fill="#efefef" d="m347.97522 589.60736l0 0c0 -7.4419556 6.032959 -13.474915 13.474976 -13.474915l0 0c3.573761 0 7.0011597 1.4196777 9.528229 3.9467163c2.5270386 2.5270386 3.9467163 5.954468 3.9467163 9.528198l0 0c0 7.4420166 -6.032959 13.474976 -13.474945 13.474976l0 0c-7.4420166 0 -13.474976 -6.032959 -13.474976 -13.474976z" fill-rule="evenodd"/><path fill="#efefef" d="m222.81265 589.5989l0 0c0 -4.5911865 3.721878 -8.313049 8.313049 -8.313049l99.996735 0c2.204773 0 4.319214 0.8758545 5.8782043 2.4348145c1.559021 1.559021 2.434845 3.673462 2.434845 5.878235l0 0l0 0c0 4.5911865 -3.7218628 8.313049 -8.313049 8.313049l-99.996735 0c-4.5911713 0 -8.313049 -3.7218628 -8.313049 -8.313049z" fill-rule="evenodd"/><path fill="#efefef" d="m68.08075 516.40906l0 0c0 -5.022217 4.071312 -9.093506 9.093521 -9.093506l289.66602 0c2.4117737 0 4.7247314 0.95803833 6.4301147 2.6634216c1.7053528 1.7053528 2.6634216 4.018341 2.6634216 6.430084l0 36.372986c0 5.022217 -4.0713196 9.093567 -9.093536 9.093567l-289.66602 0c-5.022209 0 -9.093521 -4.07135 -9.093521 -9.093567z" fill-rule="evenodd"/><defs><linearGradient id="p.1" gradientUnits="userSpaceOnUse" gradientTransform="matrix(20.13184886150989 0.0 0.0 20.13184886150989 0.0 0.0)" spreadMethod="pad" x1="0.0" y1="31.96773223527501" x2="20.131848861509894" y2="31.96773223527501"><stop offset="0.0" stop-color="#f4f4f4"/><stop offset="0.99999994" stop-color="#f4f4f4" stop-opacity="0.0"/><stop offset="1.0" stop-color="#ffffff" stop-opacity="0.0"/></linearGradient></defs><path fill="url(#p.1)" d="m0 0.19947506l405.29135 0l0 643.3701l-405.29135 0z" fill-rule="evenodd"/></g></svg>