<?xml version="1.0" encoding="UTF-8"?>
<svg fill="none" stroke-linecap="square" stroke-miterlimit="10" version="1.1" viewBox="0.0 0.0 405.28608923884514 643.7690288713911" xmlns="http://www.w3.org/2000/svg">
<clipPath id="b">
<path d="m0 0h405.29v643.77h-405.29v-643.77z"/>
</clipPath>
<g clip-path="url(#b)">
<path d="m0 0h405.29v643.77h-405.29z" fill="#000" fill-opacity="0" fill-rule="evenodd"/>
<path d="m38.973 30.517c0-16.033 12.997-29.03 29.03-29.03h308.25c7.6993 0 15.083 3.0586 20.528 8.5028 5.4443 5.4443 8.5028 12.828 8.5028 20.528v582.73c0 16.033-12.997 29.03-29.03 29.03h-308.25c-16.033 0-29.03-12.997-29.03-29.03z" fill="#434343" fill-rule="evenodd"/>
<path d="m49.822 39.839c0-15.087 12.231-27.318 27.318-27.318h290.07c7.2452 0 14.194 2.8781 19.317 8.0013 5.1231 5.1231 8.0013 12.072 8.0013 19.317v561.31c0 15.087-12.231 27.318-27.318 27.318h-290.07c-15.087 0-27.318-12.231-27.318-27.318z" fill="#f3f3f3" fill-rule="evenodd"/>
<path d="m49.533 39.947c0-15.186 12.311-27.497 27.497-27.497h290.01c7.2925 0 14.286 2.897 19.443 8.0536 5.1566 5.1566 8.0536 12.15 8.0536 19.443v19.974c0 15.186-12.311 27.497-27.497 27.497h-290.01c-15.186 0-27.497-12.311-27.497-27.497z" fill="#666" fill-rule="evenodd"/>
<path d="m49.818 37.066h344.41v53.72h-344.41z" fill="#f3f3f3" fill-rule="evenodd"/>
<path d="m64.305 63.915c0-10.492 8.5052-18.997 18.997-18.997 5.0383 0 9.8703 2.0015 13.433 5.5641 3.5626 3.5626 5.5641 8.3946 5.5641 13.433 0 10.492-8.5052 18.997-18.997 18.997-10.492 0-18.997-8.5052-18.997-18.997z" fill="#b7b7b7" fill-rule="evenodd"/>
<path d="m110.31 63.931c0-6.0995 4.9446-11.044 11.044-11.044h129.95c2.9291 0 5.7382 1.1636 7.8093 3.2347 2.0712 2.0712 3.2347 4.8803 3.2347 7.8093 0 6.0995-4.9446 11.044-11.044 11.044h-129.95c-6.0995 0-11.044-4.9446-11.044-11.044z" fill="#ccc" fill-rule="evenodd"/>
<path d="m67.071 204.48c0-37.823 30.662-68.485 68.485-68.485 18.163 0 35.583 7.2154 48.426 20.059s20.059 30.263 20.059 48.426c0 37.823-30.662 68.485-68.485 68.485-37.823 0-68.485-30.662-68.485-68.485zm34.243 0c0 18.912 15.331 34.243 34.243 34.243 18.912 0 34.243-15.331 34.243-34.243 0-18.912-15.331-34.243-34.243-34.243-18.912 0-34.243 15.331-34.243 34.243z" fill="#999" fill-rule="evenodd"/>
<path d="m193.32 241.31c-17.652 27.717-52.504 38.99-83.044 26.86-30.541-12.13-48.161-44.242-41.986-76.518 6.1748-32.276 34.404-55.616 67.265-55.616v34.243c-16.431 0-30.545 11.67-33.633 27.808-3.0874 16.138 5.7228 32.194 20.993 38.259 15.27 6.0648 32.696 0.42857 41.522-13.43z" fill="#666" fill-rule="evenodd"/>
<path d="m243.87 187.5h37.994v85.471h-37.994z" fill="#666" fill-rule="evenodd"/>
<path d="m290.4 143.49h37.994v129.53h-37.994z" fill="#666" fill-rule="evenodd"/>
<path d="m336.93 213.64h37.994v59.422h-37.994z" fill="#666" fill-rule="evenodd"/>
<path d="m367.08 628.44h-290.14c-7.1961 0-14.098-2.8586-19.186-7.9471-5.0884-5.0884-7.9471-11.99-7.9471-19.186v-274.18c0-0.0015869 0.0012856-0.0028687 0.0028687-0.0028687l344.4 0.0028687c0.0015869 0 0.0028687 0.0012817 0.0028687 0.0028687l-0.0028687 274.17c0 14.985-12.148 27.133-27.133 27.133z" fill="#b7b7b7" fill-rule="evenodd"/>
<path d="m68.081 378.78c0-5.0222 4.0713-9.0935 9.0935-9.0935h289.67c2.4118 0 4.7247 0.95807 6.4301 2.6634 1.7054 1.7054 2.6634 4.0183 2.6634 6.4301v36.373c0 5.0222-4.0713 9.0935-9.0935 9.0935h-289.67c-5.0222 0-9.0935-4.0713-9.0935-9.0935z" fill="#efefef" fill-rule="evenodd"/>
<path d="m68.081 447.59c0-5.0222 4.0713-9.0935 9.0935-9.0935h289.67c2.4118 0 4.7247 0.95807 6.4301 2.6635 1.7054 1.7054 2.6634 4.0183 2.6634 6.4301v36.373c0 5.0222-4.0713 9.0935-9.0935 9.0935h-289.67c-5.0222 0-9.0935-4.0713-9.0935-9.0935z" fill="#efefef" fill-rule="evenodd"/>
<path d="m347.98 589.61c0-7.442 6.033-13.475 13.475-13.475 3.5738 0 7.0012 1.4197 9.5282 3.9467 2.527 2.527 3.9467 5.9545 3.9467 9.5282 0 7.442-6.033 13.475-13.475 13.475-7.442 0-13.475-6.033-13.475-13.475z" fill="#efefef" fill-rule="evenodd"/>
<path d="m222.81 589.6c0-4.5912 3.7219-8.313 8.313-8.313h99.997c2.2048 0 4.3192 0.87585 5.8782 2.4348 1.559 1.559 2.4348 3.6735 2.4348 5.8782 0 4.5912-3.7219 8.313-8.313 8.313h-99.997c-4.5912 0-8.313-3.7219-8.313-8.313z" fill="#efefef" fill-rule="evenodd"/>
<path d="m68.081 516.41c0-5.0222 4.0713-9.0935 9.0935-9.0935h289.67c2.4118 0 4.7247 0.95804 6.4301 2.6634 1.7054 1.7054 2.6634 4.0183 2.6634 6.4301v36.373c0 5.0222-4.0713 9.0936-9.0935 9.0936h-289.67c-5.0222 0-9.0935-4.0714-9.0935-9.0936z" fill="#efefef" fill-rule="evenodd"/>
<defs>
<linearGradient id="a" x2="20.132" y1="31.968" y2="31.968" gradientTransform="scale(20.132)" gradientUnits="userSpaceOnUse">
<stop stop-color="#f4f4f4" offset="0"/>
<stop stop-color="#f4f4f4" stop-opacity="0" offset="1"/>
<stop stop-color="#fff" stop-opacity="0" offset="1"/>
</linearGradient>
</defs>
<path d="m0 0.19948h405.29v643.37h-405.29z" fill="url(#a)" fill-rule="evenodd"/>
</g>
</svg>
