<?xml version="1.0" encoding="UTF-8"?>
<svg fill="none" stroke-linecap="square" stroke-miterlimit="10" version="1.1" viewBox="0.0 0.0 960.0 720.0" xmlns="http://www.w3.org/2000/svg">
<clipPath id="a">
<path d="m0 0h960v720h-960v-720z"/>
</clipPath>
<g clip-path="url(#a)" fill-rule="evenodd">
<path d="m0 0h960v720h-960z" fill="#000" fill-opacity="0"/>
<path d="m228.57 360c0-179.81 112.57-325.57 251.43-325.57 66.684 0 130.64 34.302 177.79 95.359 47.153 61.057 73.643 143.87 73.643 230.22 0 179.81-112.57 325.57-251.43 325.57-138.86 0-251.43-145.76-251.43-325.57zm47.626 0c0 153.51 91.247 277.95 203.81 277.95 112.56 0 203.81-124.44 203.81-277.95 0-153.51-91.247-277.95-203.81-277.95-112.56 0-203.81 124.44-203.81 277.95z" fill="#666"/>
<path d="m439.11 223.22c0-32.946 18.31-59.654 40.898-59.654 10.847 0 21.249 6.2849 28.919 17.472 7.6698 11.187 11.979 26.36 11.979 42.181 0 32.946-18.31 59.654-40.898 59.654-22.587 0-40.898-26.708-40.898-59.654z" fill="#666"/>
</g>
</svg>
