<svg version="1.1" viewBox="0.0 0.0 352.9685039370079 550.9737532808399" fill="none" stroke="none" stroke-linecap="square" stroke-miterlimit="10" xmlns:xlink="http://www.w3.org/1999/xlink" xmlns="http://www.w3.org/2000/svg"><clipPath id="p.0"><path d="m0 0l352.9685 0l0 550.97375l-352.9685 0l0 -550.97375z" clip-rule="nonzero"/></clipPath><g clip-path="url(#p.0)"><path fill="#000000" fill-opacity="0.0" d="m0 0l352.9685 0l0 550.97375l-352.9685 0z" fill-rule="evenodd"/><path fill="#343953" d="m0 37.854607l0 0c0 -20.906523 16.948084 -37.854607 37.854607 -37.854607l276.1648 0c10.039673 0 19.668121 3.9882417 26.767242 11.0873575c7.099121 7.0991163 11.087372 16.727585 11.087372 26.76725l0 474.55847c0 20.906555 -16.94809 37.854614 -37.854614 37.854614l-276.1648 0c-20.906523 0 -37.854607 -16.94806 -37.854607 -37.854614z" fill-rule="evenodd"/><path fill="#d9d9d9" d="m0 134.64333l0 0c0 -13.302216 10.783569 -24.085785 24.085777 -24.085785l303.70245 0c6.3879395 0 12.514252 2.5376053 17.03122 7.0545654c4.516968 4.51696 7.0545654 10.643265 7.0545654 17.03122l0 346.78906c0 13.302216 -10.783569 24.085785 -24.085785 24.085785l-303.70245 0c-13.302208 0 -24.085777 -10.783569 -24.085777 -24.085785z" fill-rule="evenodd"/><path fill="#cccccc" d="m20.002075 55.06065l0 0c0 -2.1369476 1.732338 -3.8692856 3.8692837 -3.8692856l205.80475 0c1.0261993 0 2.0103607 0.4076538 2.7359924 1.1332855c0.7256317 0.7256317 1.1332855 1.7098007 1.1332855 2.736l0 29.426785c0 2.1369476 -1.7323303 3.8692856 -3.869278 3.8692856l-205.80475 0c-2.1369457 0 -3.8692837 -1.732338 -3.8692837 -3.8692856z" fill-rule="evenodd"/><path fill="#b7b7b7" d="m250.36438 55.06065l0 0c0 -2.1369476 1.7323456 -3.8692856 3.8692932 -3.8692856l73.96222 0c1.0261841 0 2.010376 0.4076538 2.7359924 1.1332855c0.725647 0.7256317 1.1333008 1.7098007 1.1333008 2.736l0 29.426785c0 2.1369476 -1.7323608 3.8692856 -3.8692932 3.8692856l-73.96222 0c-2.1369476 0 -3.8692932 -1.732338 -3.8692932 -3.8692856z" fill-rule="evenodd"/><path fill="#b7b7b7" d="m20.002075 147.38452l0 0c0 -5.0345 4.08127 -9.115784 9.115772 -9.115784l285.3905 0c2.417633 0 4.736267 0.9604187 6.445801 2.6699524c1.7095642 1.709549 2.6699524 4.0281677 2.6699524 6.4458313l0 69.3275c0 5.0345154 -4.0812683 9.115784 -9.115753 9.115784l-285.3905 0c-5.034502 0 -9.115772 -4.0812683 -9.115772 -9.115784z" fill-rule="evenodd"/><path fill="#b7b7b7" d="m20.002075 243.06161l0 0c0 -5.0345 4.08127 -9.115768 9.115772 -9.115768l285.3905 0c2.417633 0 4.736267 0.96040344 6.445801 2.6699524c1.7095642 1.7095337 2.6699524 4.0281677 2.6699524 6.445816l0 69.327515c0 5.034485 -4.0812683 9.115784 -9.115753 9.115784l-285.3905 0c-5.034502 0 -9.115772 -4.081299 -9.115772 -9.115784z" fill-rule="evenodd"/><path fill="#b7b7b7" d="m20.002075 338.7387l0 0c0 -5.034485 4.08127 -9.115753 9.115772 -9.115753l285.3905 0c2.417633 0 4.736267 0.9603882 6.445801 2.6699524c1.7095642 1.7095337 2.6699524 4.0281677 2.6699524 6.445801l0 69.327515c0 5.0345154 -4.0812683 9.115784 -9.115753 9.115784l-285.3905 0c-5.034502 0 -9.115772 -4.0812683 -9.115772 -9.115784z" fill-rule="evenodd"/><path fill="#b7b7b7" d="m332.01926 143.98805l0 0c0 -3.159256 2.5610657 -5.7203217 5.7203064 -5.7203217l0 0l0 0c1.5171509 0 2.9721375 0.6026764 4.0448914 1.6754303c1.0727844 1.0727692 1.6754456 2.5277557 1.6754456 4.0448914l0 309.30823c0 3.1592407 -2.5610657 5.7203064 -5.720337 5.7203064l0 0l0 0c-3.1592407 0 -5.7203064 -2.5610657 -5.7203064 -5.7203064z" fill-rule="evenodd"/><path fill="#999999" d="m332.01926 148.48697l0 0c0 -3.1592407 2.5610657 -5.7203217 5.7203064 -5.7203217l0 0l0 0c1.5171509 0 2.9721375 0.6026764 4.0448914 1.6754456c1.0727844 1.0727692 1.6754456 2.5277557 1.6754456 4.044876l0 300.18768c0 3.1592407 -2.5610657 5.7203064 -5.720337 5.7203064l0 0l0 0c-3.1592407 0 -5.7203064 -2.5610657 -5.7203064 -5.7203064z" fill-rule="evenodd"/><path fill="#e06666" d="m20.002075 144.00102l0 0c0 -3.1658478 2.5664291 -5.7322845 5.7322826 -5.7322845l0 0l0 0c1.5202961 0 2.978325 0.6039429 4.053337 1.6789551c1.0750103 1.0750122 1.6789455 2.5330353 1.6789455 4.0533295l0 76.0945c0 3.1658478 -2.5664291 5.7322845 -5.7322826 5.7322845l0 0l0 0c-3.1658535 0 -5.7322826 -2.5664368 -5.7322826 -5.7322845z" fill-rule="evenodd"/><path fill="#f6b26b" d="m20.002075 239.67813l0 0c0 -3.165863 2.5664291 -5.7322845 5.7322826 -5.7322845l0 0l0 0c1.5202961 0 2.978325 0.6039276 4.053337 1.6789398c1.0750103 1.0750122 1.6789455 2.5330505 1.6789455 4.0533447l0 76.09448c0 3.165863 -2.5664291 5.7323 -5.7322826 5.7323l0 0l0 0c-3.1658535 0 -5.7322826 -2.5664368 -5.7322826 -5.7323z" fill-rule="evenodd"/><path fill="#93c47d" d="m20.002075 335.35522l0 0c0 -3.165863 2.5664291 -5.7322693 5.7322826 -5.7322693l0 0l0 0c1.5202961 0 2.978325 0.60391235 4.053337 1.6789246c1.0750103 1.0750122 1.6789455 2.5330505 1.6789455 4.0533447l0 76.09448c0 3.165863 -2.5664291 5.7323 -5.7322826 5.7323l0 0l0 0c-3.1658535 0 -5.7322826 -2.5664368 -5.7322826 -5.7323z" fill-rule="evenodd"/><path fill="#cccccc" d="m44.796703 164.48195l0 0c0 -6.540436 5.3020782 -11.842514 11.842522 -11.842514l112.409454 0c3.1408234 0 6.153015 1.2476959 8.373917 3.4685974c2.2209167 2.2209015 3.4685974 5.2330933 3.4685974 8.373917l0 0l0 0c0 6.540451 -5.3020782 11.842529 -11.842514 11.842529l-112.409454 0c-6.5404434 0 -11.842522 -5.3020782 -11.842522 -11.842529z" fill-rule="evenodd"/><path fill="#cccccc" d="m44.796642 199.90367l0 0c0 -4.3399963 3.5182648 -7.858261 7.858265 -7.858261l148.22047 0c2.084137 0 4.0829163 0.82792664 5.5566406 2.3016357c1.4737091 1.4737091 2.3016205 3.4724884 2.3016205 5.5566254l0 0l0 0c0 4.3400116 -3.5182648 7.8582764 -7.858261 7.8582764l-148.22047 0c-4.34 0 -7.858265 -3.5182648 -7.858265 -7.8582764z" fill-rule="evenodd"/><path fill="#cccccc" d="m44.79664 260.94733l0 0c0 -6.540451 5.3020744 -11.842529 11.842518 -11.842529l147.55905 0c3.1408386 0 6.1530304 1.2476807 8.373932 3.4685974c2.2209015 2.2209015 3.4685822 5.2330933 3.4685822 8.373932l0 0l0 0c0 6.540436 -5.302063 11.842499 -11.842514 11.842499l-147.55905 0c-6.5404434 0 -11.842518 -5.302063 -11.842518 -11.842499z" fill-rule="evenodd"/><path fill="#cccccc" d="m44.79665 293.50415l0 0c0 -4.3399963 3.5182648 -7.858246 7.8582687 -7.858246l120.377945 0c2.0841522 0 4.0829315 0.8279114 5.5566406 2.3016052c1.4737091 1.4737244 2.3016357 3.4725037 2.3016357 5.5566406l0 0l0 0c0 4.3399963 -3.5182648 7.8582764 -7.8582764 7.8582764l-120.377945 0c-4.340004 0 -7.8582687 -3.51828 -7.8582687 -7.8582764z" fill-rule="evenodd"/><path fill="#cccccc" d="m44.796703 357.41006l0 0c0 -6.540436 5.3020782 -11.842499 11.842522 -11.842499l112.409454 0c3.1408234 0 6.153015 1.2476807 8.373917 3.4685974c2.2209167 2.2208862 3.4685974 5.2330933 3.4685974 8.373901l0 0l0 0c0 6.5404663 -5.3020782 11.842529 -11.842514 11.842529l-112.409454 0c-6.5404434 0 -11.842522 -5.302063 -11.842522 -11.842529z" fill-rule="evenodd"/><path fill="#cccccc" d="m44.796642 389.56918l0 0c0 -4.3399963 3.5182648 -7.8582764 7.858265 -7.8582764l148.22047 0c2.084137 0 4.0829163 0.8279114 5.5566406 2.3016357c1.4737091 1.4737244 2.3016205 3.4725037 2.3016205 5.5566406l0 0l0 0c0 4.3399963 -3.5182648 7.858246 -7.858261 7.858246l-148.22047 0c-4.34 0 -7.858265 -3.5182495 -7.858265 -7.858246z" fill-rule="evenodd"/><path fill="#4f577f" d="m299.15955 20.108107l0 0c0 -7.9407244 6.437256 -14.377954 14.37796 -14.377954l0 0c3.813263 0 7.4703674 1.5148158 10.166748 4.2112055c2.6964111 2.6963892 4.211212 6.3534775 4.211212 10.166748l0 0c0 7.9407234 -6.4372253 14.377951 -14.37796 14.377951l0 0c-7.9407043 0 -14.37796 -6.4372272 -14.37796 -14.377951z" fill-rule="evenodd"/><path fill="#4f577f" d="m264.9162 20.108107l0 0c0 -7.9407244 6.4372253 -14.377954 14.37796 -14.377954l0 0c3.813263 0 7.4703674 1.5148158 10.166748 4.2112055c2.6963806 2.6963892 4.211212 6.3534775 4.211212 10.166748l0 0c0 7.9407234 -6.4372253 14.377951 -14.37796 14.377951l0 0c-7.940735 0 -14.37796 -6.4372272 -14.37796 -14.377951z" fill-rule="evenodd"/></g></svg>