<?xml version="1.0" encoding="UTF-8"?>
<svg fill="none" stroke-linecap="square" stroke-miterlimit="10" version="1.1" viewBox="0.0 0.0 866.9212598425197 643.3569553805775" xmlns="http://www.w3.org/2000/svg">
<clipPath id="a">
<path d="m0 0h866.92v643.36h-866.92v-643.36z"/>
</clipPath>
<g clip-path="url(#a)" fill-rule="evenodd">
<path d="m0 0h866.92v643.36h-866.92z" fill="#000" fill-opacity="0"/>
<path d="m500.36 470.6h122.84c8.0405 0 15.752 3.1941 21.437 8.8796 5.6855 5.6855 8.8796 13.397 8.8796 21.437v26.95c0 1.8595-1.5074 3.3669-3.367 3.3669h-176.74c-1.8596 0-3.367-1.5074-3.367-3.3669v-26.95c0-16.744 13.573-30.317 30.317-30.317z" fill="#666"/>
<path d="m256.58 110.94c0-17.735 14.377-32.112 32.112-32.112h546.14c8.5166 0 16.684 3.3832 22.706 9.4053 6.0222 6.0221 9.4053 14.19 9.4053 22.707v340.97c0 17.735-14.377 32.112-32.112 32.112h-546.14c-17.735 0-32.112-14.377-32.112-32.112z" fill="#434343"/>
<path d="m267.21 120.24c0-16.654 13.501-30.155 30.155-30.155h528.52c7.9976 0 15.668 3.177 21.323 8.8322 5.6552 5.6552 8.8322 13.325 8.8322 21.323v320.2c0 16.654-13.501 30.155-30.155 30.155h-528.52c-16.654 0-30.155-13.501-30.155-30.155z" fill="#f3f3f3"/>
<path d="m266.73 118.1c0-15.51 12.574-28.084 28.084-28.084h533.16c7.4484 0 14.592 2.9589 19.859 8.2257 5.2668 5.2668 8.2256 12.41 8.2256 19.859v20.401c0 15.51-12.574 28.084-28.084 28.084h-533.16c-15.51 0-28.084-12.574-28.084-28.084z" fill="#666"/>
<path d="m267.21 115.16h588.33v54.874h-588.33z" fill="#f3f3f3"/>
<path d="m856.07 115.08v325.8c0 7.8487-3.1179 15.376-8.6678 20.926-5.5499 5.5499-13.077 8.6678-20.926 8.6678h-171.55v-355.39z" fill="#b7b7b7"/>
<path d="m275.99 142.6c0-10.721 8.6907-19.411 19.411-19.411 5.1482 0 10.086 2.0451 13.726 5.6854 3.6403 3.6403 5.6854 8.5776 5.6854 13.726 0 10.721-8.6907 19.411-19.411 19.411-10.72 0-19.411-8.6907-19.411-19.411z" fill="#b7b7b7"/>
<path d="m322.97 142.6c0-6.2245 5.0459-11.27 11.27-11.27h132.71c2.9891 0 5.8558 1.1874 7.9694 3.301 2.1136 2.1136 3.301 4.9803 3.301 7.9694 0 6.2245-5.0459 11.27-11.27 11.27h-132.71c-6.2245 0-11.27-5.0459-11.27-11.27z" fill="#ccc"/>
<path d="m309.16 286.17c0-38.64 31.324-69.965 69.965-69.965 18.556 0 36.352 7.3713 49.473 20.492 13.121 13.121 20.492 30.917 20.492 49.473 0 38.641-31.324 69.965-69.965 69.965-38.64 0-69.965-31.324-69.965-69.965zm34.982 0c0 19.32 15.662 34.982 34.982 34.982 19.32 0 34.982-15.662 34.982-34.982 0-19.32-15.662-34.982-34.982-34.982-19.32 0-34.982 15.662-34.982 34.982z" fill="#999"/>
<path d="m438.14 323.75c-18.034 28.316-53.638 39.832-84.838 27.441-31.2-12.392-49.202-45.198-42.893-78.171 6.3082-32.973 35.147-56.818 68.719-56.818v34.982c-16.786 0-31.205 11.922-34.359 28.409-3.1541 16.487 5.8465 32.89 21.447 39.085 15.6 6.1958 33.402 0.43784 42.419-13.72z" fill="#666"/>
<path d="m489.72 268.8h38.822v87.322h-38.822z" fill="#666"/>
<path d="m537.25 223.85h38.822v132.29h-38.822z" fill="#666"/>
<path d="m584.77 295.5h38.822v60.634h-38.822z" fill="#666"/>
<path d="m667.17 136.44c0-2.8242 2.2894-5.1137 5.1136-5.1137h162.88c1.3563 0 2.6569 0.53876 3.616 1.4978 0.95898 0.95901 1.4977 2.2597 1.4977 3.6159v20.454c0 2.8242-2.2895 5.1137-5.1137 5.1137h-162.88c-2.8242 0-5.1136-2.2895-5.1136-5.1137z" fill="#efefef"/>
<path d="m667.17 175.14c0-2.8242 2.2894-5.1137 5.1136-5.1137h162.88c1.3563 0 2.6569 0.53877 3.616 1.4978 0.95898 0.959 1.4977 2.2597 1.4977 3.6159v20.454c0 2.8242-2.2895 5.1137-5.1137 5.1137h-162.88c-2.8242 0-5.1136-2.2895-5.1136-5.1137z" fill="#efefef"/>
<path d="m667.17 213.83c0-2.8242 2.2894-5.1137 5.1136-5.1137h162.88c1.3563 0 2.6569 0.53876 3.616 1.4978 0.95898 0.959 1.4977 2.2597 1.4977 3.6159v20.454c0 2.8242-2.2895 5.1137-5.1137 5.1137h-162.88c-2.8242 0-5.1136-2.2895-5.1136-5.1137z" fill="#efefef"/>
<path d="m809.62 440.38c0-8.4725 6.8683-15.341 15.341-15.341 4.0686 0 7.9706 1.6163 10.848 4.4932 2.877 2.877 4.4932 6.7789 4.4932 10.848 0 8.4725-6.8683 15.341-15.341 15.341-8.4725 0-15.341-6.8683-15.341-15.341z" fill="#efefef"/>
<path d="m667.17 440.37c0-5.2277 4.2379-9.4656 9.4656-9.4656h113.82c2.5104 0 4.918 0.99725 6.6932 2.7724 1.7751 1.7751 2.7724 4.1828 2.7724 6.6932 0 5.2277-4.2379 9.4656-9.4656 9.4656h-113.82c-5.2277 0-9.4656-4.2379-9.4656-9.4656z" fill="#efefef"/>
<path d="m63.872 282.95c0-11.801 9.567-21.368 21.368-21.368h363.42c5.6673 0 11.102 2.2513 15.11 6.2586 4.0074 4.0074 6.2587 9.4425 6.2587 15.11v226.9c0 11.801-9.567 21.368-21.368 21.368h-363.42c-11.801 0-21.368-9.567-21.368-21.368z" fill="#434343"/>
<path d="m70.948 289.15c0-11.082 8.984-20.066 20.066-20.066h351.69c5.3219 0 10.426 2.1141 14.189 5.8773 3.7632 3.7632 5.8773 8.8671 5.8773 14.189v213.07c0 11.082-8.984 20.066-20.066 20.066h-351.69c-11.082 0-20.066-8.9839-20.066-20.066z" fill="#f3f3f3"/>
<path d="m70.623 287.72c0-10.321 8.367-18.688 18.688-18.688h354.78c4.9564 0 9.7099 1.9689 13.215 5.4737 3.5047 3.5047 5.4737 8.2581 5.4737 13.215v13.576c0 10.321-8.367 18.688-18.688 18.688h-354.78c-10.321 0-18.688-8.367-18.688-18.688z" fill="#666"/>
<path d="m70.947 285.76h391.49v36.515h-391.49z" fill="#f3f3f3"/>
<path d="m462.79 285.71v216.8c0 5.2228-2.0747 10.232-5.7679 13.925-3.6931 3.6931-8.702 5.7678-13.925 5.7678h-114.15v-236.49z" fill="#b7b7b7"/>
<path d="m76.785 304.02c0-7.1338 5.7831-12.917 12.917-12.917 3.4258 0 6.7113 1.3609 9.1336 3.7833 2.4224 2.4224 3.7833 5.7079 3.7833 9.1336 0 7.1338-5.7831 12.917-12.917 12.917-7.1338 0-12.917-5.7831-12.917-12.917z" fill="#b7b7b7"/>
<path d="m108.05 304.02c0-4.142 3.3577-7.4997 7.4997-7.4997h88.31c1.9891 0 3.8966 0.79013 5.3031 2.1966 1.4065 1.4065 2.1966 3.3141 2.1966 5.3031 0 4.142-3.3578 7.4997-7.4997 7.4997h-88.31c-4.142 0-7.4997-3.3577-7.4997-7.4997z" fill="#ccc"/>
<path d="m98.86 399.56c0-25.713 20.844-46.557 46.557-46.557 12.348 0 24.19 4.9051 32.921 13.636 8.7312 8.7312 13.636 20.573 13.636 32.921 0 25.713-20.844 46.557-46.557 46.557-25.713 0-46.557-20.844-46.557-46.557zm23.279 0c0 12.856 10.422 23.279 23.279 23.279 12.856 0 23.279-10.422 23.279-23.279s-10.422-23.279-23.279-23.279c-12.856 0-23.279 10.422-23.279 23.279z" fill="#999"/>
<path d="m184.69 424.57c-12 18.843-35.693 26.506-56.455 18.26-20.762-8.2458-32.74-30.076-28.543-52.018 4.1977-21.941 23.388-37.809 45.728-37.809v23.279c-11.17 0-20.765 7.9337-22.864 18.904-2.0989 10.971 3.8904 21.886 14.271 26.009 10.381 4.1229 22.227 0.29135 28.227-9.13z" fill="#666"/>
<path d="m219.01 388h25.834v58.107h-25.834z" fill="#666"/>
<path d="m250.64 358.09h25.834v88.029h-25.834z" fill="#666"/>
<path d="m282.26 405.77h25.834v40.348h-25.834z" fill="#666"/>
<path d="m337.09 299.92c0-1.8793 1.5235-3.4028 3.4028-3.4028h108.39c0.9025 0 1.768 0.35849 2.4062 0.99664 0.63815 0.63818 0.99667 1.5037 0.99667 2.4062v13.611c0 1.8793-1.5235 3.4028-3.4029 3.4028h-108.39c-1.8793 0-3.4028-1.5235-3.4028-3.4028z" fill="#efefef"/>
<path d="m337.09 325.67c0-1.8793 1.5235-3.4029 3.4028-3.4029h108.39c0.9025 0 1.768 0.35852 2.4062 0.99667s0.99667 1.5037 0.99667 2.4062v13.611c0 1.8793-1.5235 3.4028-3.4029 3.4028h-108.39c-1.8793 0-3.4028-1.5235-3.4028-3.4028z" fill="#efefef"/>
<path d="m337.09 351.42c0-1.8794 1.5235-3.4029 3.4028-3.4029h108.39c0.9025 0 1.768 0.35852 2.4062 0.99667s0.99667 1.5037 0.99667 2.4062v13.611c0 1.8793-1.5235 3.4028-3.4029 3.4028h-108.39c-1.8793 0-3.4028-1.5235-3.4028-3.4028z" fill="#efefef"/>
<path d="m431.89 502.18c0-5.6379 4.5704-10.208 10.208-10.208 2.7074 0 5.304 1.0755 7.2184 2.99 1.9144 1.9144 2.99 4.511 2.99 7.2184 0 5.6379-4.5704 10.208-10.208 10.208-5.6379 0-10.208-4.5704-10.208-10.208z" fill="#efefef"/>
<path d="m337.09 502.17c0-3.4787 2.82-6.2988 6.2988-6.2988h75.738c1.6705 0 3.2726 0.66364 4.4539 1.8449 1.1812 1.1812 1.8448 2.7834 1.8448 4.4539 0 3.4787-2.82 6.2987-6.2988 6.2987h-75.738c-3.4787 0-6.2988-2.82-6.2988-6.2987z" fill="#efefef"/>
<path d="m1.336e-4 340.98c0-4.9857 4.0417-9.0274 9.0274-9.0274h95.855c2.3942 0 4.6903 0.95111 6.3833 2.644 1.693 1.693 2.6441 3.9891 2.6441 6.3833v181.21c0 4.9857-4.0417 9.0273-9.0274 9.0273h-95.855c-4.9857 0-9.0274-4.0417-9.0274-9.0273z" fill="#434343"/>
<path d="m3.3738 343.88c0-4.6916 3.8033-8.4948 8.4949-8.4948h90.201c2.253 0 4.4137 0.89499 6.0068 2.4881 1.5931 1.5931 2.4881 3.7538 2.4881 6.0068v174.55c0 4.6916-3.8033 8.4949-8.4949 8.4949h-90.201c-4.6916 0-8.4949-3.8033-8.4949-8.4949z" fill="#f3f3f3"/>
<path d="m3.2839 343.91c0-4.7223 3.8281-8.5504 8.5504-8.5504h90.183c2.2677 0 4.4425 0.90085 6.046 2.5044s2.5043 3.7783 2.5043 6.0461v6.2112c0 4.7223-3.8281 8.5504-8.5504 8.5504h-90.183c-4.7223 0-8.5504-3.8281-8.5504-8.5504z" fill="#666"/>
<path d="m3.3728 343.02h107.1v16.705h-107.1z" fill="#f3f3f3"/>
<path d="m7.8775 351.37c0-3.2625 2.6448-5.9073 5.9073-5.9073 1.5667 0 3.0693 0.62238 4.1771 1.7302 1.1078 1.1078 1.7302 2.6104 1.7302 4.1771 0 3.2625-2.6448 5.9073-5.9073 5.9073-3.2625 0-5.9073-2.6448-5.9073-5.9073z" fill="#b7b7b7"/>
<path d="m22.183 351.37c0-1.8967 1.5376-3.4343 3.4343-3.4343h40.409c0.91083 0 1.7844 0.36182 2.4284 1.0059 0.64405 0.64404 1.0059 1.5176 1.0059 2.4284 0 1.8967-1.5376 3.4343-3.4343 3.4343h-40.409c-1.8967 0-3.4343-1.5376-3.4343-3.4343z" fill="#ccc"/>
<path d="m8.7378 395.08c0-11.762 9.5347-21.296 21.296-21.296 5.6481 0 11.065 2.2437 15.059 6.2375 3.9938 3.9938 6.2375 9.4106 6.2375 15.059 0 11.762-9.5347 21.296-21.296 21.296s-21.296-9.5347-21.296-21.296zm10.648 0c0 5.8808 4.7673 10.648 10.648 10.648 5.8808 0 10.648-4.7673 10.648-10.648 0-5.8808-4.7673-10.648-10.648-10.648-5.8808 0-10.648 4.7673-10.648 10.648z" fill="#999"/>
<path d="m47.997 406.53c-5.4892 8.619-16.327 12.124-25.824 8.3525-9.497-3.7719-14.976-13.758-13.056-23.794 1.9201-10.037 10.698-17.295 20.917-17.295v10.648c-5.1093 0-9.4984 3.629-10.458 8.6473-0.96006 5.0183 1.7796 10.011 6.5281 11.897 4.7485 1.8859 10.167 0.13327 12.912-4.1762z" fill="#666"/>
<path d="m63.715 389.8h11.815v26.578h-11.815z" fill="#666"/>
<path d="m78.185 376.11h11.815v40.278h-11.815z" fill="#666"/>
<path d="m92.654 397.93h11.815v18.478h-11.815z" fill="#666"/>
<path d="m102.03 526.91h-90.223c-2.2377 0-4.3838-0.88892-5.9661-2.4713-1.5823-1.5823-2.4712-3.7284-2.4712-5.9661v-85.259c0-4.8828e-4 3.9959e-4 -8.8501e-4 8.9264e-4 -8.8501e-4l107.1 8.8501e-4c4.8828e-4 0 8.9264e-4 3.9673e-4 8.9264e-4 8.8501e-4l-8.9264e-4 85.258c0 4.6599-3.7775 8.4374-8.4373 8.4374z" fill="#b7b7b7"/>
<path d="m9.0517 449.28c0-1.5617 1.266-2.8277 2.8277-2.8277h90.075c0.74996 0 1.4692 0.29791 1.9995 0.82822 0.5303 0.5303 0.82822 1.2495 0.82822 1.9995v11.311c0 1.5617-1.266 2.8277-2.8277 2.8277h-90.075c-1.5617 0-2.8277-1.266-2.8277-2.8277z" fill="#efefef"/>
<path d="m9.0517 470.68c0-1.5617 1.266-2.8277 2.8277-2.8277h90.075c0.74996 0 1.4692 0.29791 1.9995 0.82822 0.5303 0.5303 0.82822 1.2495 0.82822 1.9995v11.311c0 1.5617-1.266 2.8278-2.8277 2.8278h-90.075c-1.5617 0-2.8277-1.266-2.8277-2.8278z" fill="#efefef"/>
<path d="m96.088 514.84c0-2.3141 1.876-4.1902 4.1902-4.1902 1.1113 0 2.1771 0.44147 2.9629 1.2273 0.78582 0.78583 1.2273 1.8516 1.2273 2.9629 0 2.3142-1.876 4.1902-4.1902 4.1902-2.3142 0-4.1902-1.876-4.1902-4.1902z" fill="#efefef"/>
<path d="m57.167 514.84c0-1.4277 1.1574-2.585 2.585-2.585h31.095c0.68559 0 1.3431 0.27234 1.8279 0.75714 0.48479 0.4848 0.75714 1.1423 0.75714 1.8279 0 1.4277-1.1574 2.585-2.585 2.585h-31.095c-1.4277 0-2.585-1.1573-2.585-2.585z" fill="#efefef"/>
<path d="m9.0517 492.08c0-1.5617 1.266-2.8277 2.8277-2.8277h90.075c0.74996 0 1.4692 0.29791 1.9995 0.82822 0.5303 0.5303 0.82822 1.2496 0.82822 1.9995v11.311c0 1.5617-1.266 2.8277-2.8277 2.8277h-90.075c-1.5617 0-2.8277-1.266-2.8277-2.8277z" fill="#efefef"/>
</g>
</svg>
