<svg version="1.1" viewBox="0.0 0.0 866.9212598425197 643.3569553805775" fill="none" stroke="none" stroke-linecap="square" stroke-miterlimit="10" xmlns:xlink="http://www.w3.org/1999/xlink" xmlns="http://www.w3.org/2000/svg"><clipPath id="p.0"><path d="m0 0l866.92126 0l0 643.35693l-866.92126 0l0 -643.35693z" clip-rule="nonzero"/></clipPath><g clip-path="url(#p.0)"><path fill="#000000" fill-opacity="0.0" d="m0 0l866.92126 0l0 643.35693l-866.92126 0z" fill-rule="evenodd"/><path fill="#666666" d="m500.3608 470.59543l122.84158 0l0 0c8.040527 0 15.751709 3.1940613 21.437256 8.879578c5.685486 5.685486 8.879578 13.396698 8.879578 21.437195l0 26.94986c0 1.8594971 -1.5074463 3.3669434 -3.3670044 3.3669434l-176.74121 0c-1.8595581 0 -3.3670044 -1.5074463 -3.3670044 -3.3669434l0 -26.94986l0 0c0 -16.7435 13.573303 -30.316772 30.316803 -30.316772z" fill-rule="evenodd"/><path fill="#434343" d="m256.58148 110.93526l0 0c0 -17.734886 14.376953 -32.111847 32.111847 -32.111847l546.1443 0c8.516602 0 16.684326 3.3832016 22.706482 9.405342c6.022156 6.0221405 9.405334 14.189911 9.405334 22.706505l0 340.97308c0 17.734894 -14.376953 32.111847 -32.111816 32.111847l-546.1443 0c-17.734894 0 -32.111847 -14.376953 -32.111847 -32.111847z" fill-rule="evenodd"/><path fill="#f3f3f3" d="m267.21432 120.24367l0 0c0 -16.65419 13.500885 -30.155075 30.15509 -30.155075l528.5155 0c7.9976196 0 15.667664 3.1770477 21.322815 8.832214c5.6552124 5.6551743 8.832214 13.325233 8.832214 21.32286l0 320.19543c0 16.654205 -13.5008545 30.15509 -30.15503 30.15509l-528.5155 0c-16.654205 0 -30.15509 -13.500885 -30.15509 -30.15509z" fill-rule="evenodd"/><path fill="#666666" d="m266.72562 118.104416l0 0c0 -15.510475 12.57373 -28.084198 28.084198 -28.084198l533.1564 0c7.4484253 0 14.591736 2.9588623 19.858582 8.2256775c5.2667847 5.2668076 8.225647 12.410133 8.225647 19.85852l0 20.4012c0 15.510483 -12.57373 28.084198 -28.084229 28.084198l-533.1564 0c-15.510468 0 -28.084198 -12.573715 -28.084198 -28.084198z" fill-rule="evenodd"/><path fill="#f3f3f3" d="m267.21347 115.15992l588.3264 0l0 54.873604l-588.3264 0z" fill-rule="evenodd"/><path fill="#b7b7b7" d="m856.0656 115.082306l0 325.7984c0 7.848694 -3.11792 15.375946 -8.667786 20.925842c-5.5498657 5.5498657 -13.077148 8.667755 -20.925842 8.667755l-171.5456 0l0 -355.392z" fill-rule="evenodd"/><path fill="#b7b7b7" d="m275.98578 142.59868l0 0c0 -10.72052 8.690704 -19.411201 19.411194 -19.411201l0 0c5.1481934 0 10.08551 2.0450974 13.7258 5.685402c3.6403198 3.6403046 5.685425 8.577621 5.685425 13.7258l0 0c0 10.720505 -8.690704 19.411194 -19.411224 19.411194l0 0c-10.7204895 0 -19.411194 -8.690689 -19.411194 -19.411194z" fill-rule="evenodd"/><path fill="#cccccc" d="m322.9704 142.59631l0 0c0 -6.224472 5.045929 -11.270401 11.270386 -11.270401l132.71039 0c2.9891052 0 5.855774 1.1874084 7.969391 3.3010101c2.113617 2.113617 3.3010254 4.9802856 3.3010254 7.969391l0 0l0 0c0 6.224457 -5.045929 11.270386 -11.270416 11.270386l-132.71039 0c-6.224457 0 -11.270386 -5.045929 -11.270386 -11.270386z" fill-rule="evenodd"/><path fill="#999999" d="m309.16052 286.16583l0 0c0 -38.640488 31.32431 -69.9648 69.96478 -69.9648l0 0c18.555817 0 36.351654 7.3712616 49.472595 20.492218c13.120941 13.120941 20.492218 30.916763 20.492218 49.47258l0 0c0 38.640503 -31.32431 69.96481 -69.96481 69.96481l0 0c-38.640472 0 -69.96478 -31.32431 -69.96478 -69.96481zm34.98239 0l0 0c0 19.320251 15.66217 34.98239 34.98239 34.98239c19.320251 0 34.98242 -15.66214 34.98242 -34.98239c0 -19.320251 -15.66217 -34.982407 -34.98242 -34.982407l0 0c-19.32022 0 -34.98239 15.662155 -34.98239 34.982407z" fill-rule="evenodd"/><path fill="#666666" d="m438.13843 323.74762l0 0c-18.03366 28.316193 -53.63791 39.832184 -84.83832 27.440521c-31.200409 -12.391663 -49.201508 -45.197784 -42.89331 -78.17087c6.308197 -32.973114 35.1474 -56.818024 68.718506 -56.818024l0 34.98239c-16.785553 0 -31.20514 11.922455 -34.359253 28.409027c-3.1541138 16.486542 5.846466 32.889587 21.446655 39.08542c15.60022 6.1958313 33.402344 0.4378357 42.41916 -13.720245z" fill-rule="evenodd"/><path fill="#666666" d="m489.72275 268.7978l38.82242 0l0 87.321594l-38.82242 0z" fill-rule="evenodd"/><path fill="#666666" d="m537.2451 223.85161l38.822388 0l0 132.28798l-38.822388 0z" fill-rule="evenodd"/><path fill="#666666" d="m584.76746 295.49716l38.822388 0l0 60.633606l-38.822388 0z" fill-rule="evenodd"/><path fill="#efefef" d="m667.1675 136.4396l0 0c0 -2.8242188 2.2894287 -5.113693 5.1136475 -5.113693l162.87982 0c1.3562622 0 2.6569214 0.5387573 3.6159668 1.497757c0.9589844 0.9590149 1.4977417 2.2597046 1.4977417 3.6159363l0 20.454193c0 2.8242188 -2.2894897 5.1137085 -5.1137085 5.1137085l-162.87982 0l0 0c-2.8242188 0 -5.1136475 -2.2894897 -5.1136475 -5.1137085z" fill-rule="evenodd"/><path fill="#efefef" d="m667.1675 175.13597l0 0c0 -2.8242188 2.2894287 -5.1137085 5.1136475 -5.1137085l162.87982 0c1.3562622 0 2.6569214 0.5387726 3.6159668 1.4977722c0.9589844 0.95899963 1.4977417 2.2596893 1.4977417 3.6159363l0 20.454193c0 2.8242188 -2.2894897 5.1137085 -5.1137085 5.1137085l-162.87982 0l0 0c-2.8242188 0 -5.1136475 -2.2894897 -5.1136475 -5.1137085z" fill-rule="evenodd"/><path fill="#efefef" d="m667.1675 213.83234l0 0c0 -2.824234 2.2894287 -5.1137085 5.1136475 -5.1137085l162.87982 0c1.3562622 0 2.6569214 0.5387573 3.6159668 1.4977722c0.9589844 0.95899963 1.4977417 2.2596893 1.4977417 3.6159363l0 20.454193c0 2.8242188 -2.2894897 5.113693 -5.1137085 5.113693l-162.87982 0l0 0c-2.8242188 0 -5.1136475 -2.2894745 -5.1136475 -5.113693z" fill-rule="evenodd"/><path fill="#efefef" d="m809.62366 440.38205l0 0c0 -8.472473 6.868286 -15.34079 15.34082 -15.34079l0 0c4.0686035 0 7.970581 1.616272 10.847534 4.493225c2.8769531 2.8769531 4.493225 6.7789307 4.493225 10.847565l0 0c0 8.472504 -6.868286 15.34082 -15.340759 15.34082l0 0c-8.472534 0 -15.34082 -6.8683167 -15.34082 -15.34082z" fill-rule="evenodd"/><path fill="#efefef" d="m667.1675 440.37228l0 0c0 -5.2276917 4.237854 -9.465576 9.465576 -9.465576l113.81763 0c2.510376 0 4.91803 0.9972534 6.6931763 2.7724c1.7751465 1.7751465 2.7724 4.18277 2.7724 6.6931763l0 0l0 0c0 5.227722 -4.237915 9.465607 -9.465576 9.465607l-113.81763 0c-5.227722 0 -9.465576 -4.2378845 -9.465576 -9.465607z" fill-rule="evenodd"/><path fill="#434343" d="m63.87241 282.95328l0 0c0 -11.801422 9.566952 -21.368378 21.36839 -21.368378l363.42426 0c5.667267 0 11.102386 2.2512817 15.109741 6.2586365c4.0073547 4.0073547 6.258667 9.442505 6.258667 15.109741l0 226.8959c0 11.801453 -9.566956 21.368408 -21.368408 21.368408l-363.42426 0c-11.801437 0 -21.36839 -9.566956 -21.36839 -21.368408z" fill-rule="evenodd"/><path fill="#f3f3f3" d="m70.94791 289.14743l0 0c0 -11.082306 8.983978 -20.066284 20.066277 -20.066284l351.6934 0c5.3218994 0 10.425842 2.1141357 14.188995 5.877289c3.763153 3.763153 5.877289 8.867096 5.877289 14.188995l0 213.0697c0 11.082306 -8.983978 20.066254 -20.066284 20.066254l-351.6934 0c-11.082298 0 -20.066277 -8.983948 -20.066277 -20.066254z" fill-rule="evenodd"/><path fill="#666666" d="m70.62269 287.7239l0 0c0 -10.321228 8.367012 -18.688263 18.688248 -18.688263l354.78165 0c4.956421 0 9.709869 1.9689331 13.214569 5.4736633c3.5047302 3.5047302 5.4736633 8.258148 5.4736633 13.2146l0 13.575684c0 10.321259 -8.367004 18.688263 -18.688232 18.688263l-354.78165 0c-10.321236 0 -18.688248 -8.367004 -18.688248 -18.688263z" fill-rule="evenodd"/><path fill="#f3f3f3" d="m70.947334 285.76453l391.49377 0l0 36.514893l-391.49377 0z" fill-rule="evenodd"/><path fill="#b7b7b7" d="m462.79092 285.7129l0 216.79807c0 5.2228394 -2.0747375 10.23172 -5.767853 13.924835c-3.6930847 3.6931152 -8.701996 5.7678223 -13.924805 5.7678223l-114.15268 0l0 -236.49072z" fill-rule="evenodd"/><path fill="#b7b7b7" d="m76.784744 304.02325l0 0c0 -7.133789 5.7830963 -12.916901 12.916916 -12.916901l0 0c3.4257812 0 6.7112503 1.3608704 9.133644 3.7832642c2.4223862 2.4223938 3.7832718 5.7078857 3.7832718 9.133636l0 0c0 7.1338196 -5.7830963 12.916931 -12.916916 12.916931l0 0c-7.1338196 0 -12.916916 -5.7831116 -12.916916 -12.916931z" fill-rule="evenodd"/><path fill="#cccccc" d="m108.05 304.0217l0 0c0 -4.1419983 3.3577423 -7.4997253 7.499733 -7.4997253l88.310326 0c1.9890594 0 3.896637 0.7901306 5.303116 2.1965942c1.4064636 1.4064941 2.1966248 3.314087 2.1966248 5.303131l0 0l0 0c0 4.1419983 -3.3577576 7.4997253 -7.4997406 7.4997253l-88.310326 0c-4.1419907 0 -7.499733 -3.357727 -7.499733 -7.4997253z" fill-rule="evenodd"/><path fill="#999999" d="m98.86041 399.55807l0 0c0 -25.7128 20.844337 -46.55713 46.55713 -46.55713l0 0c12.347717 0 24.189697 4.905121 32.920853 13.636261c8.731155 8.731171 13.636261 20.57315 13.636261 32.920868l0 0c0 25.7128 -20.84433 46.55713 -46.557114 46.55713l0 0c-25.712791 0 -46.55713 -20.84433 -46.55713 -46.55713zm23.278564 0l0 0c0 12.856384 10.422165 23.278564 23.278564 23.278564c12.856384 0 23.27855 -10.42218 23.27855 -23.278564c0 -12.856384 -10.422165 -23.278564 -23.27855 -23.278564l0 0c-12.8564 0 -23.278564 10.42218 -23.278564 23.278564z" fill-rule="evenodd"/><path fill="#666666" d="m184.68701 424.56638l0 0c-12.000259 18.84259 -35.69261 26.505768 -56.454514 18.259888c-20.761879 -8.24585 -32.74047 -30.076233 -28.542763 -52.01773c4.197708 -21.941498 23.388367 -37.808777 45.727806 -37.808777l0 23.278564c-11.1697235 0 -20.765053 7.933655 -22.863907 18.904388c-2.098854 10.970764 3.890442 21.885925 14.271393 26.00888c10.380936 4.122925 22.227112 0.29135132 28.22725 -9.129974z" fill-rule="evenodd"/><path fill="#666666" d="m219.01309 388.00073l25.833832 0l0 58.106964l-25.833832 0z" fill-rule="evenodd"/><path fill="#666666" d="m250.63618 358.09192l25.833847 0l0 88.029236l-25.833847 0z" fill-rule="evenodd"/><path fill="#666666" d="m282.2593 405.7675l25.833832 0l0 40.34778l-25.833832 0z" fill-rule="evenodd"/><path fill="#efefef" d="m337.09125 299.9248l0 0c0 -1.8793335 1.5234985 -3.402832 3.402832 -3.402832l108.38614 0c0.90249634 0 1.7680359 0.35849 2.406189 0.99664307c0.6381531 0.6381836 0.9966736 1.5036926 0.9966736 2.406189l0 13.610962c0 1.8793335 -1.523529 3.402832 -3.4028625 3.402832l-108.38614 0c-1.8793335 0 -3.402832 -1.5234985 -3.402832 -3.402832z" fill-rule="evenodd"/><path fill="#efefef" d="m337.09125 325.67477l0 0c0 -1.8793335 1.5234985 -3.4028625 3.402832 -3.4028625l108.38614 0c0.90249634 0 1.7680359 0.3585205 2.406189 0.9966736c0.6381531 0.6381531 0.9966736 1.5036926 0.9966736 2.406189l0 13.610962c0 1.8793335 -1.523529 3.402832 -3.4028625 3.402832l-108.38614 0c-1.8793335 0 -3.402832 -1.5234985 -3.402832 -3.402832z" fill-rule="evenodd"/><path fill="#efefef" d="m337.09125 351.42474l0 0c0 -1.879364 1.5234985 -3.4028625 3.402832 -3.4028625l108.38614 0c0.90249634 0 1.7680359 0.3585205 2.406189 0.9966736c0.6381531 0.6381531 0.9966736 1.5036926 0.9966736 2.406189l0 13.610962c0 1.8793335 -1.523529 3.402832 -3.4028625 3.402832l-108.38614 0c-1.8793335 0 -3.402832 -1.5234985 -3.402832 -3.402832z" fill-rule="evenodd"/><path fill="#efefef" d="m431.88678 502.17917l0 0c0 -5.637909 4.5704346 -10.2083435 10.208313 -10.2083435l0 0c2.707428 0 5.303955 1.075531 7.218384 2.9899597c1.9144287 1.9144287 2.9899597 4.510956 2.9899597 7.218384l0 0c0 5.637909 -4.5704346 10.2083435 -10.2083435 10.2083435l0 0c-5.6378784 0 -10.208313 -4.5704346 -10.208313 -10.2083435z" fill-rule="evenodd"/><path fill="#efefef" d="m337.09125 502.17267l0 0c0 -3.4786987 2.8200378 -6.298767 6.298767 -6.298767l75.73834 0c1.6705322 0 3.272644 0.66363525 4.4539185 1.8448792c1.1812439 1.1812439 1.8448486 2.7833557 1.8448486 4.453888l0 0l0 0c0 3.4786987 -2.8200378 6.2987366 -6.298767 6.2987366l-75.73834 0c-3.4787292 0 -6.298767 -2.8200378 -6.298767 -6.2987366z" fill-rule="evenodd"/><path fill="#434343" d="m1.3359581E-4 340.98273l0 0c0 -4.9856873 4.041685 -9.027374 9.027356 -9.027374l95.85514 0c2.3942032 0 4.690346 0.95111084 6.3833084 2.644043c1.692955 1.6929626 2.6440506 3.9891052 2.6440506 6.3833313l0 181.20819c0 4.9856567 -4.041687 9.027344 -9.027359 9.027344l-95.85514 0c-4.985671 0 -9.027356 -4.041687 -9.027356 -9.027344z" fill-rule="evenodd"/><path fill="#f3f3f3" d="m3.373754 343.88138l0 0c0 -4.6915894 3.8032765 -8.494843 8.494856 -8.494843l90.2009 0c2.2529755 0 4.413681 0.894989 6.006775 2.4880676c1.5930939 1.5931091 2.488083 3.7537842 2.488083 6.006775l0 174.54605c0 4.6915894 -3.803276 8.494873 -8.494858 8.494873l-90.2009 0c-4.691579 0 -8.494856 -3.8032837 -8.494856 -8.494873z" fill-rule="evenodd"/><path fill="#666666" d="m3.2839348 343.91495l0 0c0 -4.7222595 3.828141 -8.550415 8.550392 -8.550415l90.18314 0c2.2677078 0 4.4425354 0.9008484 6.0460434 2.504364c1.603508 1.6035156 2.5043488 3.7783203 2.5043488 6.046051l0 6.2112427c0 4.7222595 -3.8281403 8.5503845 -8.550392 8.5503845l-90.18314 0c-4.722251 0 -8.550392 -3.828125 -8.550392 -8.5503845z" fill-rule="evenodd"/><path fill="#f3f3f3" d="m3.3727517 343.01904l107.09729 0l0 16.704773l-107.09729 0z" fill-rule="evenodd"/><path fill="#b7b7b7" d="m7.8775373 351.36816l0 0c0 -3.2625427 2.6448045 -5.907318 5.9073358 -5.907318l0 0c1.5667229 0 3.0692759 0.6223755 4.1771173 1.7301941c1.1078396 1.1078491 1.730217 2.6104126 1.730217 4.177124l0 0c0 3.2625427 -2.644804 5.9073486 -5.9073343 5.9073486l0 0c-3.2625313 0 -5.9073358 -2.644806 -5.9073358 -5.9073486z" fill-rule="evenodd"/><path fill="#cccccc" d="m22.183332 351.3731l0 0c0 -1.896698 1.5375805 -3.4342957 3.4342804 -3.4342957l40.408783 0c0.91082764 0 1.7843552 0.3618164 2.4284058 1.0058899c0.6440506 0.64404297 1.0058746 1.5175781 1.0058746 2.4284058l0 0l0 0c0 1.896698 -1.5375748 3.4342651 -3.4342804 3.4342651l-40.408783 0c-1.8966999 0 -3.4342804 -1.5375671 -3.4342804 -3.4342651z" fill-rule="evenodd"/><path fill="#999999" d="m8.737788 395.07956l0 0c0 -11.761597 9.534665 -21.296265 21.296272 -21.296265l0 0c5.648123 0 11.064913 2.2437134 15.058737 6.2375183c3.9938278 3.9938354 6.2375336 9.410645 6.2375336 15.058746l0 0c0 11.761597 -9.534664 21.296265 -21.29627 21.296265l0 0c-11.761606 0 -21.296272 -9.534668 -21.296272 -21.296265zm10.648135 0l0 0c0 5.8807983 4.767334 10.648132 10.648136 10.648132c5.880804 0 10.648134 -4.767334 10.648134 -10.648132c0 -5.8807983 -4.76733 -10.648132 -10.648134 -10.648132l0 0c-5.880802 0 -10.648136 4.767334 -10.648136 10.648132z" fill-rule="evenodd"/><path fill="#666666" d="m47.996796 406.53207l0 0c-5.489189 8.619049 -16.326601 12.124359 -25.823555 8.352509c-9.496953 -3.7718506 -14.976229 -13.757538 -13.056104 -23.794098c1.920126 -10.03653 10.698363 -17.294556 20.916924 -17.294556l0 10.648132c-5.1092796 0 -9.498398 3.6289978 -10.458462 8.647278c-0.960062 5.01828 1.7795753 10.011108 6.5280533 11.897034c4.748476 1.8859253 10.167181 0.13327026 12.911776 -4.176239z" fill-rule="evenodd"/><path fill="#666666" d="m63.715088 389.79794l11.814674 0l0 26.578339l-11.814674 0z" fill-rule="evenodd"/><path fill="#666666" d="m78.184616 376.11273l11.814674 0l0 40.278137l-11.814674 0z" fill-rule="evenodd"/><path fill="#666666" d="m92.65415 397.92734l11.814667 0l0 18.477936l-11.814667 0z" fill-rule="evenodd"/><path fill="#b7b7b7" d="m102.02748 526.91455l-90.22261 0c-2.2377205 0 -4.38379 -0.888916 -5.966098 -2.4712524c-1.5823073 -1.5823364 -2.4712384 -3.7283936 -2.4712384 -5.9661255l0 -85.25876c0 -4.8828125E-4 3.9958954E-4 -8.8500977E-4 8.9263916E-4 -8.8500977E-4l107.0964 8.8500977E-4l0 0c4.8828125E-4 0 8.9263916E-4 3.9672852E-4 8.9263916E-4 8.8500977E-4l-8.9263916E-4 85.25787l0 0c0 4.659851 -3.7775269 8.437378 -8.43734 8.437378z" fill-rule="evenodd"/><path fill="#efefef" d="m9.051666 449.2794l0 0c0 -1.5617065 1.2660217 -2.8277283 2.8277388 -2.8277283l90.07509 0c0.74996185 0 1.4692078 0.2979126 1.9995117 0.82821655c0.53030396 0.53030396 0.8282242 1.2495422 0.8282242 1.9995117l0 11.310608c0 1.5617065 -1.2660217 2.8277283 -2.827736 2.8277283l-90.07509 0l0 0c-1.561717 0 -2.8277388 -1.2660217 -2.8277388 -2.8277283z" fill-rule="evenodd"/><path fill="#efefef" d="m9.051666 470.67795l0 0c0 -1.5617065 1.2660217 -2.8277283 2.8277388 -2.8277283l90.07509 0c0.74996185 0 1.4692078 0.2979126 1.9995117 0.82821655c0.53030396 0.53030396 0.8282242 1.2495422 0.8282242 1.9995117l0 11.310608c0 1.5617371 -1.2660217 2.8277588 -2.827736 2.8277588l-90.07509 0l0 0c-1.561717 0 -2.8277388 -1.2660217 -2.8277388 -2.8277588z" fill-rule="evenodd"/><path fill="#efefef" d="m96.08817 514.8384l0 0c0 -2.314148 1.8760147 -4.190155 4.190193 -4.190155l0 0c1.1113129 0 2.1771011 0.4414673 2.9629135 1.2272644c0.78582 0.78582764 1.2272797 1.8516235 1.2272797 2.9628906l0 0c0 2.314209 -1.8760071 4.1902466 -4.190193 4.1902466l0 0c-2.3141785 0 -4.190193 -1.8760376 -4.190193 -4.1902466z" fill-rule="evenodd"/><path fill="#efefef" d="m57.167385 514.83575l0 0c0 -1.4276733 1.1573639 -2.585022 2.585041 -2.585022l31.09517 0c0.68559265 0 1.3431091 0.27233887 1.8279037 0.7571411c0.484787 0.48480225 0.7571411 1.142273 0.7571411 1.8278809l0 0l0 0c0 1.4276733 -1.1573639 2.585022 -2.5850449 2.585022l-31.09517 0c-1.4276772 0 -2.585041 -1.1573486 -2.585041 -2.585022z" fill-rule="evenodd"/><path fill="#efefef" d="m9.051666 492.0765l0 0c0 -1.5617065 1.2660217 -2.8277283 2.8277388 -2.8277283l90.07509 0c0.74996185 0 1.4692078 0.2979126 1.9995117 0.82821655c0.53030396 0.53030396 0.8282242 1.2495728 0.8282242 1.9995117l0 11.310638c0 1.5617065 -1.2660217 2.8277283 -2.827736 2.8277283l-90.07509 0l0 0c-1.561717 0 -2.8277388 -1.2660217 -2.8277388 -2.8277283z" fill-rule="evenodd"/></g></svg>